<mxfile host="65bd71144e">
    <diagram id="7w93Qd3ucldGkNyjXXQn" name="Sayfa -1">
        <mxGraphModel dx="726" dy="748" grid="1" gridSize="10" guides="1" tooltips="1" connect="1" arrows="1" fold="1" page="1" pageScale="1" pageWidth="1654" pageHeight="2336" math="0" shadow="0">
            <root>
                <mxCell id="0"/>
                <mxCell id="1" parent="0"/>
                <mxCell id="Sv2H_rABcHJF4czR625y-1" value="Person" style="swimlane;fontStyle=1;align=center;verticalAlign=top;childLayout=stackLayout;horizontal=1;startSize=26;horizontalStack=0;resizeParent=1;resizeParentMax=0;resizeLast=0;collapsible=1;marginBottom=0;" parent="1" vertex="1">
                    <mxGeometry x="820" y="80" width="160" height="112" as="geometry">
                        <mxRectangle x="340" y="50" width="80" height="30" as="alternateBounds"/>
                    </mxGeometry>
                </mxCell>
                <mxCell id="Sv2H_rABcHJF4czR625y-2" value="# firstName: String" style="text;strokeColor=none;fillColor=none;align=left;verticalAlign=top;spacingLeft=4;spacingRight=4;overflow=hidden;rotatable=0;points=[[0,0.5],[1,0.5]];portConstraint=eastwest;" parent="Sv2H_rABcHJF4czR625y-1" vertex="1">
                    <mxGeometry y="26" width="160" height="26" as="geometry"/>
                </mxCell>
                <mxCell id="Sv2H_rABcHJF4czR625y-4" value="# lastName: String" style="text;strokeColor=none;fillColor=none;align=left;verticalAlign=top;spacingLeft=4;spacingRight=4;overflow=hidden;rotatable=0;points=[[0,0.5],[1,0.5]];portConstraint=eastwest;" parent="Sv2H_rABcHJF4czR625y-1" vertex="1">
                    <mxGeometry y="52" width="160" height="26" as="geometry"/>
                </mxCell>
                <mxCell id="Sv2H_rABcHJF4czR625y-3" value="" style="line;strokeWidth=1;fillColor=none;align=left;verticalAlign=middle;spacingTop=-1;spacingLeft=3;spacingRight=3;rotatable=0;labelPosition=right;points=[];portConstraint=eastwest;strokeColor=inherit;" parent="Sv2H_rABcHJF4czR625y-1" vertex="1">
                    <mxGeometry y="78" width="160" height="8" as="geometry"/>
                </mxCell>
                <mxCell id="BRYjogfGwO4EZ4AMCY0b-3" value="&lt;&lt;constructor&gt;&gt;Person():" style="text;strokeColor=none;fillColor=none;align=left;verticalAlign=top;spacingLeft=4;spacingRight=4;overflow=hidden;rotatable=0;points=[[0,0.5],[1,0.5]];portConstraint=eastwest;" parent="Sv2H_rABcHJF4czR625y-1" vertex="1">
                    <mxGeometry y="86" width="160" height="26" as="geometry"/>
                </mxCell>
                <mxCell id="Sv2H_rABcHJF4czR625y-7" value="Student" style="swimlane;fontStyle=1;align=center;verticalAlign=top;childLayout=stackLayout;horizontal=1;startSize=26;horizontalStack=0;resizeParent=1;resizeParentMax=0;resizeLast=0;collapsible=1;marginBottom=0;" parent="1" vertex="1">
                    <mxGeometry x="580" y="480" width="370" height="552" as="geometry"/>
                </mxCell>
                <mxCell id="Sv2H_rABcHJF4czR625y-8" value="- advisor: Advisor" style="text;strokeColor=none;fillColor=none;align=left;verticalAlign=top;spacingLeft=4;spacingRight=4;overflow=hidden;rotatable=0;points=[[0,0.5],[1,0.5]];portConstraint=eastwest;" parent="Sv2H_rABcHJF4czR625y-7" vertex="1">
                    <mxGeometry y="26" width="370" height="26" as="geometry"/>
                </mxCell>
                <mxCell id="Sv2H_rABcHJF4czR625y-10" value="- id: StudentID" style="text;strokeColor=none;fillColor=none;align=left;verticalAlign=top;spacingLeft=4;spacingRight=4;overflow=hidden;rotatable=0;points=[[0,0.5],[1,0.5]];portConstraint=eastwest;" parent="Sv2H_rABcHJF4czR625y-7" vertex="1">
                    <mxGeometry y="52" width="370" height="26" as="geometry"/>
                </mxCell>
                <mxCell id="Sv2H_rABcHJF4czR625y-11" value="- schedule: Schedule" style="text;strokeColor=none;fillColor=none;align=left;verticalAlign=top;spacingLeft=4;spacingRight=4;overflow=hidden;rotatable=0;points=[[0,0.5],[1,0.5]];portConstraint=eastwest;" parent="Sv2H_rABcHJF4czR625y-7" vertex="1">
                    <mxGeometry y="78" width="370" height="26" as="geometry"/>
                </mxCell>
                <mxCell id="Sv2H_rABcHJF4czR625y-12" value="- transcript: Transcript" style="text;strokeColor=none;fillColor=none;align=left;verticalAlign=top;spacingLeft=4;spacingRight=4;overflow=hidden;rotatable=0;points=[[0,0.5],[1,0.5]];portConstraint=eastwest;" parent="Sv2H_rABcHJF4czR625y-7" vertex="1">
                    <mxGeometry y="104" width="370" height="26" as="geometry"/>
                </mxCell>
                <mxCell id="GpqEzXDei8LeBioLYVpC-29" value="- dateOfEntry: Calender" style="text;strokeColor=none;fillColor=none;align=left;verticalAlign=top;spacingLeft=4;spacingRight=4;overflow=hidden;rotatable=0;points=[[0,0.5],[1,0.5]];portConstraint=eastwest;" parent="Sv2H_rABcHJF4czR625y-7" vertex="1">
                    <mxGeometry y="130" width="370" height="26" as="geometry"/>
                </mxCell>
                <mxCell id="lI1AC3695uIBytSDKQQq-52" value="- debt: Debt" style="text;strokeColor=none;fillColor=none;align=left;verticalAlign=top;spacingLeft=4;spacingRight=4;overflow=hidden;rotatable=0;points=[[0,0.5],[1,0.5]];portConstraint=eastwest;" parent="Sv2H_rABcHJF4czR625y-7" vertex="1">
                    <mxGeometry y="156" width="370" height="26" as="geometry"/>
                </mxCell>
                <mxCell id="lI1AC3695uIBytSDKQQq-53" value="- registrationApplication: LectureRegistrationApplication" style="text;strokeColor=none;fillColor=none;align=left;verticalAlign=top;spacingLeft=4;spacingRight=4;overflow=hidden;rotatable=0;points=[[0,0.5],[1,0.5]];portConstraint=eastwest;" parent="Sv2H_rABcHJF4czR625y-7" vertex="1">
                    <mxGeometry y="182" width="370" height="26" as="geometry"/>
                </mxCell>
                <mxCell id="68" value="- scanner: Scanner" style="text;strokeColor=none;fillColor=none;align=left;verticalAlign=top;spacingLeft=4;spacingRight=4;overflow=hidden;rotatable=0;points=[[0,0.5],[1,0.5]];portConstraint=eastwest;" vertex="1" parent="Sv2H_rABcHJF4czR625y-7">
                    <mxGeometry y="208" width="370" height="26" as="geometry"/>
                </mxCell>
                <mxCell id="Sv2H_rABcHJF4czR625y-9" value="" style="line;strokeWidth=1;fillColor=none;align=left;verticalAlign=middle;spacingTop=-1;spacingLeft=3;spacingRight=3;rotatable=0;labelPosition=right;points=[];portConstraint=eastwest;strokeColor=inherit;" parent="Sv2H_rABcHJF4czR625y-7" vertex="1">
                    <mxGeometry y="234" width="370" height="8" as="geometry"/>
                </mxCell>
                <mxCell id="BRYjogfGwO4EZ4AMCY0b-4" value="&lt;&lt;constructor&gt;&gt;Student()" style="text;strokeColor=none;fillColor=none;align=left;verticalAlign=top;spacingLeft=4;spacingRight=4;overflow=hidden;rotatable=0;points=[[0,0.5],[1,0.5]];portConstraint=eastwest;" parent="Sv2H_rABcHJF4czR625y-7" vertex="1">
                    <mxGeometry y="242" width="370" height="24" as="geometry"/>
                </mxCell>
                <mxCell id="BRYjogfGwO4EZ4AMCY0b-5" value="+ sendForApproval(ArrayList&lt;LectureSession&gt;): void" style="text;strokeColor=none;fillColor=none;align=left;verticalAlign=top;spacingLeft=4;spacingRight=4;overflow=hidden;rotatable=0;points=[[0,0.5],[1,0.5]];portConstraint=eastwest;" parent="Sv2H_rABcHJF4czR625y-7" vertex="1">
                    <mxGeometry y="266" width="370" height="26" as="geometry"/>
                </mxCell>
                <mxCell id="59" value="+ showTranscript(): void" style="text;strokeColor=none;fillColor=none;align=left;verticalAlign=top;spacingLeft=4;spacingRight=4;overflow=hidden;rotatable=0;points=[[0,0.5],[1,0.5]];portConstraint=eastwest;" vertex="1" parent="Sv2H_rABcHJF4czR625y-7">
                    <mxGeometry y="292" width="370" height="26" as="geometry"/>
                </mxCell>
                <mxCell id="60" value="+ showSchedule(): void" style="text;strokeColor=none;fillColor=none;align=left;verticalAlign=top;spacingLeft=4;spacingRight=4;overflow=hidden;rotatable=0;points=[[0,0.5],[1,0.5]];portConstraint=eastwest;" vertex="1" parent="Sv2H_rABcHJF4czR625y-7">
                    <mxGeometry y="318" width="370" height="26" as="geometry"/>
                </mxCell>
                <mxCell id="58" value="+ debtMenu(): void" style="text;strokeColor=none;fillColor=none;align=left;verticalAlign=top;spacingLeft=4;spacingRight=4;overflow=hidden;rotatable=0;points=[[0,0.5],[1,0.5]];portConstraint=eastwest;" vertex="1" parent="Sv2H_rABcHJF4czR625y-7">
                    <mxGeometry y="344" width="370" height="26" as="geometry"/>
                </mxCell>
                <mxCell id="61" value="+ registrationStatusMenu(): void" style="text;strokeColor=none;fillColor=none;align=left;verticalAlign=top;spacingLeft=4;spacingRight=4;overflow=hidden;rotatable=0;points=[[0,0.5],[1,0.5]];portConstraint=eastwest;" vertex="1" parent="Sv2H_rABcHJF4czR625y-7">
                    <mxGeometry y="370" width="370" height="26" as="geometry"/>
                </mxCell>
                <mxCell id="62" value="+ makeRegistrationMenu(): void" style="text;strokeColor=none;fillColor=none;align=left;verticalAlign=top;spacingLeft=4;spacingRight=4;overflow=hidden;rotatable=0;points=[[0,0.5],[1,0.5]];portConstraint=eastwest;" vertex="1" parent="Sv2H_rABcHJF4czR625y-7">
                    <mxGeometry y="396" width="370" height="26" as="geometry"/>
                </mxCell>
                <mxCell id="63" value="- parseSelectionCommand(String,ArrayList&lt;LectureSession&gt;): void" style="text;strokeColor=none;fillColor=none;align=left;verticalAlign=top;spacingLeft=4;spacingRight=4;overflow=hidden;rotatable=0;points=[[0,0.5],[1,0.5]];portConstraint=eastwest;" vertex="1" parent="Sv2H_rABcHJF4czR625y-7">
                    <mxGeometry y="422" width="370" height="26" as="geometry"/>
                </mxCell>
                <mxCell id="64" value="- showChosenLectureSessions(ArrayList&lt;LectureSession&gt;): void" style="text;strokeColor=none;fillColor=none;align=left;verticalAlign=top;spacingLeft=4;spacingRight=4;overflow=hidden;rotatable=0;points=[[0,0.5],[1,0.5]];portConstraint=eastwest;" vertex="1" parent="Sv2H_rABcHJF4czR625y-7">
                    <mxGeometry y="448" width="370" height="26" as="geometry"/>
                </mxCell>
                <mxCell id="65" value="- canTakeLecture(Lecture,Transcript): boolean" style="text;strokeColor=none;fillColor=none;align=left;verticalAlign=top;spacingLeft=4;spacingRight=4;overflow=hidden;rotatable=0;points=[[0,0.5],[1,0.5]];portConstraint=eastwest;" vertex="1" parent="Sv2H_rABcHJF4czR625y-7">
                    <mxGeometry y="474" width="370" height="26" as="geometry"/>
                </mxCell>
                <mxCell id="66" value="- hasPreqLectureTaken(Lecture,ArrayList&lt;Lecture&gt;): boolean" style="text;strokeColor=none;fillColor=none;align=left;verticalAlign=top;spacingLeft=4;spacingRight=4;overflow=hidden;rotatable=0;points=[[0,0.5],[1,0.5]];portConstraint=eastwest;" vertex="1" parent="Sv2H_rABcHJF4czR625y-7">
                    <mxGeometry y="500" width="370" height="26" as="geometry"/>
                </mxCell>
                <mxCell id="67" value="- takenPoint(Lecture,HashMap&lt;Lecture, LetterGrade&gt;): boolean" style="text;strokeColor=none;fillColor=none;align=left;verticalAlign=top;spacingLeft=4;spacingRight=4;overflow=hidden;rotatable=0;points=[[0,0.5],[1,0.5]];portConstraint=eastwest;" vertex="1" parent="Sv2H_rABcHJF4czR625y-7">
                    <mxGeometry y="526" width="370" height="26" as="geometry"/>
                </mxCell>
                <mxCell id="Sv2H_rABcHJF4czR625y-14" value="Instructor" style="swimlane;fontStyle=1;align=center;verticalAlign=top;childLayout=stackLayout;horizontal=1;startSize=26;horizontalStack=0;resizeParent=1;resizeParentMax=0;resizeLast=0;collapsible=1;marginBottom=0;" parent="1" vertex="1">
                    <mxGeometry x="1075" y="450" width="240" height="250" as="geometry">
                        <mxRectangle x="827" y="610" width="100" height="30" as="alternateBounds"/>
                    </mxGeometry>
                </mxCell>
                <mxCell id="Sv2H_rABcHJF4czR625y-15" value="# id: InstructorID" style="text;strokeColor=none;fillColor=none;align=left;verticalAlign=top;spacingLeft=4;spacingRight=4;overflow=hidden;rotatable=0;points=[[0,0.5],[1,0.5]];portConstraint=eastwest;" parent="Sv2H_rABcHJF4czR625y-14" vertex="1">
                    <mxGeometry y="26" width="240" height="26" as="geometry"/>
                </mxCell>
                <mxCell id="CaGFxNKdIuVeOpa1Jxo8-17" value="- schedule: Schedule" style="text;strokeColor=none;fillColor=none;align=left;verticalAlign=top;spacingLeft=4;spacingRight=4;overflow=hidden;rotatable=0;points=[[0,0.5],[1,0.5]];portConstraint=eastwest;" parent="Sv2H_rABcHJF4czR625y-14" vertex="1">
                    <mxGeometry y="52" width="240" height="26" as="geometry"/>
                </mxCell>
                <mxCell id="Sv2H_rABcHJF4czR625y-17" value="# dateOfEntry: Calender" style="text;strokeColor=none;fillColor=none;align=left;verticalAlign=top;spacingLeft=4;spacingRight=4;overflow=hidden;rotatable=0;points=[[0,0.5],[1,0.5]];portConstraint=eastwest;" parent="Sv2H_rABcHJF4czR625y-14" vertex="1">
                    <mxGeometry y="78" width="240" height="26" as="geometry"/>
                </mxCell>
                <mxCell id="BRYjogfGwO4EZ4AMCY0b-24" value="# instructorType: InstructorType" style="text;strokeColor=none;fillColor=none;align=left;verticalAlign=top;spacingLeft=4;spacingRight=4;overflow=hidden;rotatable=0;points=[[0,0.5],[1,0.5]];portConstraint=eastwest;" parent="Sv2H_rABcHJF4czR625y-14" vertex="1">
                    <mxGeometry y="104" width="240" height="26" as="geometry"/>
                </mxCell>
                <mxCell id="72" value="- scanner: Scanner" style="text;strokeColor=none;fillColor=none;align=left;verticalAlign=top;spacingLeft=4;spacingRight=4;overflow=hidden;rotatable=0;points=[[0,0.5],[1,0.5]];portConstraint=eastwest;" vertex="1" parent="Sv2H_rABcHJF4czR625y-14">
                    <mxGeometry y="130" width="240" height="26" as="geometry"/>
                </mxCell>
                <mxCell id="Sv2H_rABcHJF4czR625y-19" value="" style="line;strokeWidth=1;fillColor=none;align=left;verticalAlign=middle;spacingTop=-1;spacingLeft=3;spacingRight=3;rotatable=0;labelPosition=right;points=[];portConstraint=eastwest;strokeColor=inherit;" parent="Sv2H_rABcHJF4czR625y-14" vertex="1">
                    <mxGeometry y="156" width="240" height="8" as="geometry"/>
                </mxCell>
                <mxCell id="4mFP-AUnUqjv986MjFmd-3" value="&lt;&lt;constructor&gt;&gt;Instructor():" style="text;strokeColor=none;fillColor=none;align=left;verticalAlign=top;spacingLeft=4;spacingRight=4;overflow=hidden;rotatable=0;points=[[0,0.5],[1,0.5]];portConstraint=eastwest;" parent="Sv2H_rABcHJF4czR625y-14" vertex="1">
                    <mxGeometry y="164" width="240" height="26" as="geometry"/>
                </mxCell>
                <mxCell id="73" value="+ showLectures(): void" style="text;strokeColor=none;fillColor=none;align=left;verticalAlign=top;spacingLeft=4;spacingRight=4;overflow=hidden;rotatable=0;points=[[0,0.5],[1,0.5]];portConstraint=eastwest;" vertex="1" parent="Sv2H_rABcHJF4czR625y-14">
                    <mxGeometry y="190" width="240" height="30" as="geometry"/>
                </mxCell>
                <mxCell id="74" value="+ showStudents(): void" style="text;strokeColor=none;fillColor=none;align=left;verticalAlign=top;spacingLeft=4;spacingRight=4;overflow=hidden;rotatable=0;points=[[0,0.5],[1,0.5]];portConstraint=eastwest;" vertex="1" parent="Sv2H_rABcHJF4czR625y-14">
                    <mxGeometry y="220" width="240" height="30" as="geometry"/>
                </mxCell>
                <mxCell id="Sv2H_rABcHJF4czR625y-21" value="Lecture" style="swimlane;fontStyle=1;align=center;verticalAlign=top;childLayout=stackLayout;horizontal=1;startSize=26;horizontalStack=0;resizeParent=1;resizeParentMax=0;resizeLast=0;collapsible=1;marginBottom=0;" parent="1" vertex="1">
                    <mxGeometry x="450" y="1278" width="290" height="320" as="geometry"/>
                </mxCell>
                <mxCell id="Sv2H_rABcHJF4czR625y-22" value="- id: LectureID" style="text;strokeColor=none;fillColor=none;align=left;verticalAlign=top;spacingLeft=4;spacingRight=4;overflow=hidden;rotatable=0;points=[[0,0.5],[1,0.5]];portConstraint=eastwest;" parent="Sv2H_rABcHJF4czR625y-21" vertex="1">
                    <mxGeometry y="26" width="290" height="26" as="geometry"/>
                </mxCell>
                <mxCell id="Sv2H_rABcHJF4czR625y-24" value="- name: String" style="text;strokeColor=none;fillColor=none;align=left;verticalAlign=top;spacingLeft=4;spacingRight=4;overflow=hidden;rotatable=0;points=[[0,0.5],[1,0.5]];portConstraint=eastwest;" parent="Sv2H_rABcHJF4czR625y-21" vertex="1">
                    <mxGeometry y="52" width="290" height="26" as="geometry"/>
                </mxCell>
                <mxCell id="Sv2H_rABcHJF4czR625y-25" value="- lectureType: LectureType" style="text;strokeColor=none;fillColor=none;align=left;verticalAlign=top;spacingLeft=4;spacingRight=4;overflow=hidden;rotatable=0;points=[[0,0.5],[1,0.5]];portConstraint=eastwest;" parent="Sv2H_rABcHJF4czR625y-21" vertex="1">
                    <mxGeometry y="78" width="290" height="26" as="geometry"/>
                </mxCell>
                <mxCell id="Sv2H_rABcHJF4czR625y-28" value="- credit: int" style="text;strokeColor=none;fillColor=none;align=left;verticalAlign=top;spacingLeft=4;spacingRight=4;overflow=hidden;rotatable=0;points=[[0,0.5],[1,0.5]];portConstraint=eastwest;" parent="Sv2H_rABcHJF4czR625y-21" vertex="1">
                    <mxGeometry y="104" width="290" height="26" as="geometry"/>
                </mxCell>
                <mxCell id="Sv2H_rABcHJF4czR625y-29" value="- sessions: ArrayList&lt;LectureSession&gt;" style="text;strokeColor=none;fillColor=none;align=left;verticalAlign=top;spacingLeft=4;spacingRight=4;overflow=hidden;rotatable=0;points=[[0,0.5],[1,0.5]];portConstraint=eastwest;" parent="Sv2H_rABcHJF4czR625y-21" vertex="1">
                    <mxGeometry y="130" width="290" height="26" as="geometry"/>
                </mxCell>
                <mxCell id="Sv2H_rABcHJF4czR625y-30" value="- prerequisities: Lecture" style="text;strokeColor=none;fillColor=none;align=left;verticalAlign=top;spacingLeft=4;spacingRight=4;overflow=hidden;rotatable=0;points=[[0,0.5],[1,0.5]];portConstraint=eastwest;" parent="Sv2H_rABcHJF4czR625y-21" vertex="1">
                    <mxGeometry y="156" width="290" height="26" as="geometry"/>
                </mxCell>
                <mxCell id="Sv2H_rABcHJF4czR625y-31" value="- quota: int" style="text;strokeColor=none;fillColor=none;align=left;verticalAlign=top;spacingLeft=4;spacingRight=4;overflow=hidden;rotatable=0;points=[[0,0.5],[1,0.5]];portConstraint=eastwest;" parent="Sv2H_rABcHJF4czR625y-21" vertex="1">
                    <mxGeometry y="182" width="290" height="26" as="geometry"/>
                </mxCell>
                <mxCell id="Sv2H_rABcHJF4czR625y-23" value="" style="line;strokeWidth=1;fillColor=none;align=left;verticalAlign=middle;spacingTop=-1;spacingLeft=3;spacingRight=3;rotatable=0;labelPosition=right;points=[];portConstraint=eastwest;strokeColor=inherit;" parent="Sv2H_rABcHJF4czR625y-21" vertex="1">
                    <mxGeometry y="208" width="290" height="8" as="geometry"/>
                </mxCell>
                <mxCell id="BRYjogfGwO4EZ4AMCY0b-28" value="&lt;&lt;constructor&gt;&gt;Lecture()" style="text;strokeColor=none;fillColor=none;align=left;verticalAlign=top;spacingLeft=4;spacingRight=4;overflow=hidden;rotatable=0;points=[[0,0.5],[1,0.5]];portConstraint=eastwest;" parent="Sv2H_rABcHJF4czR625y-21" vertex="1">
                    <mxGeometry y="216" width="290" height="26" as="geometry"/>
                </mxCell>
                <mxCell id="4mFP-AUnUqjv986MjFmd-30" value="+ removeLectureSession(LectureSession): void" style="text;strokeColor=none;fillColor=none;align=left;verticalAlign=top;spacingLeft=4;spacingRight=4;overflow=hidden;rotatable=0;points=[[0,0.5],[1,0.5]];portConstraint=eastwest;" parent="Sv2H_rABcHJF4czR625y-21" vertex="1">
                    <mxGeometry y="242" width="290" height="26" as="geometry"/>
                </mxCell>
                <mxCell id="4mFP-AUnUqjv986MjFmd-31" value="+ addPrerequisitielLecture(Lecture): void" style="text;strokeColor=none;fillColor=none;align=left;verticalAlign=top;spacingLeft=4;spacingRight=4;overflow=hidden;rotatable=0;points=[[0,0.5],[1,0.5]];portConstraint=eastwest;" parent="Sv2H_rABcHJF4czR625y-21" vertex="1">
                    <mxGeometry y="268" width="290" height="26" as="geometry"/>
                </mxCell>
                <mxCell id="4mFP-AUnUqjv986MjFmd-32" value="+ removePrerequisitielLecture(Lecture): void" style="text;strokeColor=none;fillColor=none;align=left;verticalAlign=top;spacingLeft=4;spacingRight=4;overflow=hidden;rotatable=0;points=[[0,0.5],[1,0.5]];portConstraint=eastwest;" parent="Sv2H_rABcHJF4czR625y-21" vertex="1">
                    <mxGeometry y="294" width="290" height="26" as="geometry"/>
                </mxCell>
                <mxCell id="Sv2H_rABcHJF4czR625y-33" value="Advisor" style="swimlane;fontStyle=1;align=center;verticalAlign=top;childLayout=stackLayout;horizontal=1;startSize=26;horizontalStack=0;resizeParent=1;resizeParentMax=0;resizeLast=0;collapsible=1;marginBottom=0;" parent="1" vertex="1">
                    <mxGeometry x="1005" y="852" width="380" height="262" as="geometry"/>
                </mxCell>
                <mxCell id="Sv2H_rABcHJF4czR625y-34" value="- listOfStudents:ArrayList&lt;Student&gt; " style="text;strokeColor=none;fillColor=none;align=left;verticalAlign=top;spacingLeft=4;spacingRight=4;overflow=hidden;rotatable=0;points=[[0,0.5],[1,0.5]];portConstraint=eastwest;" parent="Sv2H_rABcHJF4czR625y-33" vertex="1">
                    <mxGeometry y="26" width="380" height="26" as="geometry"/>
                </mxCell>
                <mxCell id="lI1AC3695uIBytSDKQQq-6" value="- listOfApplications:ArrayList&lt;LectureRegistrationApplication&gt;" style="text;strokeColor=none;fillColor=none;align=left;verticalAlign=top;spacingLeft=4;spacingRight=4;overflow=hidden;rotatable=0;points=[[0,0.5],[1,0.5]];portConstraint=eastwest;" parent="Sv2H_rABcHJF4czR625y-33" vertex="1">
                    <mxGeometry y="52" width="380" height="30" as="geometry"/>
                </mxCell>
                <mxCell id="69" value="- scanner: Scanner" style="text;strokeColor=none;fillColor=none;align=left;verticalAlign=top;spacingLeft=4;spacingRight=4;overflow=hidden;rotatable=0;points=[[0,0.5],[1,0.5]];portConstraint=eastwest;" vertex="1" parent="Sv2H_rABcHJF4czR625y-33">
                    <mxGeometry y="82" width="380" height="26" as="geometry"/>
                </mxCell>
                <mxCell id="Sv2H_rABcHJF4czR625y-36" value="" style="line;strokeWidth=1;fillColor=none;align=left;verticalAlign=middle;spacingTop=-1;spacingLeft=3;spacingRight=3;rotatable=0;labelPosition=right;points=[];portConstraint=eastwest;strokeColor=inherit;" parent="Sv2H_rABcHJF4czR625y-33" vertex="1">
                    <mxGeometry y="108" width="380" height="8" as="geometry"/>
                </mxCell>
                <mxCell id="cAbqjUgSmoloA-8wXHxn-1" value="&lt;&lt;constructor&gt;&gt;Advisor()" style="text;strokeColor=none;fillColor=none;align=left;verticalAlign=top;spacingLeft=4;spacingRight=4;overflow=hidden;rotatable=0;points=[[0,0.5],[1,0.5]];portConstraint=eastwest;" parent="Sv2H_rABcHJF4czR625y-33" vertex="1">
                    <mxGeometry y="116" width="380" height="26" as="geometry"/>
                </mxCell>
                <mxCell id="71" value="+ showApplications(): void" style="text;strokeColor=none;fillColor=none;align=left;verticalAlign=top;spacingLeft=4;spacingRight=4;overflow=hidden;rotatable=0;points=[[0,0.5],[1,0.5]];portConstraint=eastwest;" vertex="1" parent="Sv2H_rABcHJF4czR625y-33">
                    <mxGeometry y="142" width="380" height="30" as="geometry"/>
                </mxCell>
                <mxCell id="70" value="+ applicationOperations(Integer): void" style="text;strokeColor=none;fillColor=none;align=left;verticalAlign=top;spacingLeft=4;spacingRight=4;overflow=hidden;rotatable=0;points=[[0,0.5],[1,0.5]];portConstraint=eastwest;" vertex="1" parent="Sv2H_rABcHJF4czR625y-33">
                    <mxGeometry y="172" width="380" height="30" as="geometry"/>
                </mxCell>
                <mxCell id="lI1AC3695uIBytSDKQQq-9" value="+ approveApplications(LectureRegistrationApplication): void" style="text;strokeColor=none;fillColor=none;align=left;verticalAlign=top;spacingLeft=4;spacingRight=4;overflow=hidden;rotatable=0;points=[[0,0.5],[1,0.5]];portConstraint=eastwest;" parent="Sv2H_rABcHJF4czR625y-33" vertex="1">
                    <mxGeometry y="202" width="380" height="30" as="geometry"/>
                </mxCell>
                <mxCell id="CaGFxNKdIuVeOpa1Jxo8-15" value="+ rejentApplications(LectureRegistrationApplication): void" style="text;strokeColor=none;fillColor=none;align=left;verticalAlign=top;spacingLeft=4;spacingRight=4;overflow=hidden;rotatable=0;points=[[0,0.5],[1,0.5]];portConstraint=eastwest;" parent="Sv2H_rABcHJF4czR625y-33" vertex="1">
                    <mxGeometry y="232" width="380" height="30" as="geometry"/>
                </mxCell>
                <mxCell id="Sv2H_rABcHJF4czR625y-38" value="&lt;&lt;Enum&gt;&gt;&#10;LectureHour" style="swimlane;fontStyle=1;align=center;verticalAlign=top;childLayout=stackLayout;horizontal=1;startSize=40;horizontalStack=0;resizeParent=1;resizeParentMax=0;resizeLast=0;collapsible=1;marginBottom=0;" parent="1" vertex="1">
                    <mxGeometry x="1240" y="120" width="160" height="80" as="geometry"/>
                </mxCell>
                <mxCell id="Sv2H_rABcHJF4czR625y-39" value="YES&#10;NO" style="text;strokeColor=none;fillColor=none;align=left;verticalAlign=top;spacingLeft=4;spacingRight=4;overflow=hidden;rotatable=0;points=[[0,0.5],[1,0.5]];portConstraint=eastwest;" parent="Sv2H_rABcHJF4czR625y-38" vertex="1">
                    <mxGeometry y="40" width="160" height="40" as="geometry"/>
                </mxCell>
                <mxCell id="Sv2H_rABcHJF4czR625y-42" value="&lt;&lt;interface&gt;&gt;&#10;UniqueID" style="swimlane;fontStyle=1;align=center;verticalAlign=top;childLayout=stackLayout;horizontal=1;startSize=40;horizontalStack=0;resizeParent=1;resizeParentMax=0;resizeLast=0;collapsible=1;marginBottom=0;" parent="1" vertex="1">
                    <mxGeometry x="60" y="194" width="160" height="126" as="geometry"/>
                </mxCell>
                <mxCell id="Sv2H_rABcHJF4czR625y-44" value="" style="line;strokeWidth=1;fillColor=none;align=left;verticalAlign=middle;spacingTop=-1;spacingLeft=3;spacingRight=3;rotatable=0;labelPosition=right;points=[];portConstraint=eastwest;strokeColor=inherit;" parent="Sv2H_rABcHJF4czR625y-42" vertex="1">
                    <mxGeometry y="40" width="160" height="8" as="geometry"/>
                </mxCell>
                <mxCell id="Sv2H_rABcHJF4czR625y-45" value="+ setID(String): void" style="text;strokeColor=none;fillColor=none;align=left;verticalAlign=top;spacingLeft=4;spacingRight=4;overflow=hidden;rotatable=0;points=[[0,0.5],[1,0.5]];portConstraint=eastwest;" parent="Sv2H_rABcHJF4czR625y-42" vertex="1">
                    <mxGeometry y="48" width="160" height="26" as="geometry"/>
                </mxCell>
                <mxCell id="GpqEzXDei8LeBioLYVpC-1" value="+ getID(): String" style="text;strokeColor=none;fillColor=none;align=left;verticalAlign=top;spacingLeft=4;spacingRight=4;overflow=hidden;rotatable=0;points=[[0,0.5],[1,0.5]];portConstraint=eastwest;" parent="Sv2H_rABcHJF4czR625y-42" vertex="1">
                    <mxGeometry y="74" width="160" height="26" as="geometry"/>
                </mxCell>
                <mxCell id="BRYjogfGwO4EZ4AMCY0b-1" value="+ digitFixer(int): String" style="text;strokeColor=none;fillColor=none;align=left;verticalAlign=top;spacingLeft=4;spacingRight=4;overflow=hidden;rotatable=0;points=[[0,0.5],[1,0.5]];portConstraint=eastwest;" parent="Sv2H_rABcHJF4czR625y-42" vertex="1">
                    <mxGeometry y="100" width="160" height="26" as="geometry"/>
                </mxCell>
                <mxCell id="Sv2H_rABcHJF4czR625y-46" value="LectureID" style="swimlane;fontStyle=1;align=center;verticalAlign=top;childLayout=stackLayout;horizontal=1;startSize=26;horizontalStack=0;resizeParent=1;resizeParentMax=0;resizeLast=0;collapsible=1;marginBottom=0;" parent="1" vertex="1">
                    <mxGeometry x="320" y="220" width="180" height="138" as="geometry"/>
                </mxCell>
                <mxCell id="GpqEzXDei8LeBioLYVpC-3" value="- LectureCode: String" style="text;strokeColor=none;fillColor=none;align=left;verticalAlign=top;spacingLeft=4;spacingRight=4;overflow=hidden;rotatable=0;points=[[0,0.5],[1,0.5]];portConstraint=eastwest;" parent="Sv2H_rABcHJF4czR625y-46" vertex="1">
                    <mxGeometry y="26" width="180" height="26" as="geometry"/>
                </mxCell>
                <mxCell id="Sv2H_rABcHJF4czR625y-48" value="" style="line;strokeWidth=1;fillColor=none;align=left;verticalAlign=middle;spacingTop=-1;spacingLeft=3;spacingRight=3;rotatable=0;labelPosition=right;points=[];portConstraint=eastwest;strokeColor=inherit;" parent="Sv2H_rABcHJF4czR625y-46" vertex="1">
                    <mxGeometry y="52" width="180" height="8" as="geometry"/>
                </mxCell>
                <mxCell id="BRYjogfGwO4EZ4AMCY0b-2" value="&lt;&lt;constructor&gt;&gt;LectureID()" style="text;strokeColor=none;fillColor=none;align=left;verticalAlign=top;spacingLeft=4;spacingRight=4;overflow=hidden;rotatable=0;points=[[0,0.5],[1,0.5]];portConstraint=eastwest;" parent="Sv2H_rABcHJF4czR625y-46" vertex="1">
                    <mxGeometry y="60" width="180" height="26" as="geometry"/>
                </mxCell>
                <mxCell id="GpqEzXDei8LeBioLYVpC-4" value="+ setID(String): void" style="text;strokeColor=none;fillColor=none;align=left;verticalAlign=top;spacingLeft=4;spacingRight=4;overflow=hidden;rotatable=0;points=[[0,0.5],[1,0.5]];portConstraint=eastwest;" parent="Sv2H_rABcHJF4czR625y-46" vertex="1">
                    <mxGeometry y="86" width="180" height="26" as="geometry"/>
                </mxCell>
                <mxCell id="GpqEzXDei8LeBioLYVpC-5" value="+ getID(): String" style="text;strokeColor=none;fillColor=none;align=left;verticalAlign=top;spacingLeft=4;spacingRight=4;overflow=hidden;rotatable=0;points=[[0,0.5],[1,0.5]];portConstraint=eastwest;" parent="Sv2H_rABcHJF4czR625y-46" vertex="1">
                    <mxGeometry y="112" width="180" height="26" as="geometry"/>
                </mxCell>
                <mxCell id="Sv2H_rABcHJF4czR625y-70" value="Transcript" style="swimlane;fontStyle=1;align=center;verticalAlign=top;childLayout=stackLayout;horizontal=1;startSize=26;horizontalStack=0;resizeParent=1;resizeParentMax=0;resizeLast=0;collapsible=1;marginBottom=0;" parent="1" vertex="1">
                    <mxGeometry x="30" y="702" width="230" height="242" as="geometry"/>
                </mxCell>
                <mxCell id="Sv2H_rABcHJF4czR625y-71" value="- student: Student" style="text;strokeColor=none;fillColor=none;align=left;verticalAlign=top;spacingLeft=4;spacingRight=4;overflow=hidden;rotatable=0;points=[[0,0.5],[1,0.5]];portConstraint=eastwest;" parent="Sv2H_rABcHJF4czR625y-70" vertex="1">
                    <mxGeometry y="26" width="230" height="26" as="geometry"/>
                </mxCell>
                <mxCell id="GpqEzXDei8LeBioLYVpC-36" value="- listOfSemester: ArrayList&lt;Semester&gt;" style="text;strokeColor=none;fillColor=none;align=left;verticalAlign=top;spacingLeft=4;spacingRight=4;overflow=hidden;rotatable=0;points=[[0,0.5],[1,0.5]];portConstraint=eastwest;" parent="Sv2H_rABcHJF4czR625y-70" vertex="1">
                    <mxGeometry y="52" width="230" height="26" as="geometry"/>
                </mxCell>
                <mxCell id="GpqEzXDei8LeBioLYVpC-37" value="- gano: Double" style="text;strokeColor=none;fillColor=none;align=left;verticalAlign=top;spacingLeft=4;spacingRight=4;overflow=hidden;rotatable=0;points=[[0,0.5],[1,0.5]];portConstraint=eastwest;" parent="Sv2H_rABcHJF4czR625y-70" vertex="1">
                    <mxGeometry y="78" width="230" height="26" as="geometry"/>
                </mxCell>
                <mxCell id="GpqEzXDei8LeBioLYVpC-39" value="- totatCreditsTaken: int" style="text;strokeColor=none;fillColor=none;align=left;verticalAlign=top;spacingLeft=4;spacingRight=4;overflow=hidden;rotatable=0;points=[[0,0.5],[1,0.5]];portConstraint=eastwest;" parent="Sv2H_rABcHJF4czR625y-70" vertex="1">
                    <mxGeometry y="104" width="230" height="26" as="geometry"/>
                </mxCell>
                <mxCell id="GpqEzXDei8LeBioLYVpC-40" value="- totalCreditsCompleted: int" style="text;strokeColor=none;fillColor=none;align=left;verticalAlign=top;spacingLeft=4;spacingRight=4;overflow=hidden;rotatable=0;points=[[0,0.5],[1,0.5]];portConstraint=eastwest;" parent="Sv2H_rABcHJF4czR625y-70" vertex="1">
                    <mxGeometry y="130" width="230" height="26" as="geometry"/>
                </mxCell>
                <mxCell id="GpqEzXDei8LeBioLYVpC-41" value="- points: Double" style="text;strokeColor=none;fillColor=none;align=left;verticalAlign=top;spacingLeft=4;spacingRight=4;overflow=hidden;rotatable=0;points=[[0,0.5],[1,0.5]];portConstraint=eastwest;" parent="Sv2H_rABcHJF4czR625y-70" vertex="1">
                    <mxGeometry y="156" width="230" height="26" as="geometry"/>
                </mxCell>
                <mxCell id="Sv2H_rABcHJF4czR625y-72" value="" style="line;strokeWidth=1;fillColor=none;align=left;verticalAlign=middle;spacingTop=-1;spacingLeft=3;spacingRight=3;rotatable=0;labelPosition=right;points=[];portConstraint=eastwest;strokeColor=inherit;" parent="Sv2H_rABcHJF4czR625y-70" vertex="1">
                    <mxGeometry y="182" width="230" height="8" as="geometry"/>
                </mxCell>
                <mxCell id="Sv2H_rABcHJF4czR625y-73" value="&lt;&lt;constructor&gt;&gt;Transcript" style="text;strokeColor=none;fillColor=none;align=left;verticalAlign=top;spacingLeft=4;spacingRight=4;overflow=hidden;rotatable=0;points=[[0,0.5],[1,0.5]];portConstraint=eastwest;" parent="Sv2H_rABcHJF4czR625y-70" vertex="1">
                    <mxGeometry y="190" width="230" height="26" as="geometry"/>
                </mxCell>
                <mxCell id="n8ZZXpKbyfj6zKWUehs0-7" value="+ addSemester(Semester): void" style="text;strokeColor=none;fillColor=none;align=left;verticalAlign=top;spacingLeft=4;spacingRight=4;overflow=hidden;rotatable=0;points=[[0,0.5],[1,0.5]];portConstraint=eastwest;" parent="Sv2H_rABcHJF4czR625y-70" vertex="1">
                    <mxGeometry y="216" width="230" height="26" as="geometry"/>
                </mxCell>
                <mxCell id="Sv2H_rABcHJF4czR625y-74" value="LectureSession" style="swimlane;fontStyle=1;align=center;verticalAlign=top;childLayout=stackLayout;horizontal=1;startSize=26;horizontalStack=0;resizeParent=1;resizeParentMax=0;resizeLast=0;collapsible=1;marginBottom=0;" parent="1" vertex="1">
                    <mxGeometry x="300" y="810" width="260" height="242" as="geometry"/>
                </mxCell>
                <mxCell id="Sv2H_rABcHJF4czR625y-75" value="- sessionID:  UniqueID" style="text;strokeColor=none;fillColor=none;align=left;verticalAlign=top;spacingLeft=4;spacingRight=4;overflow=hidden;rotatable=0;points=[[0,0.5],[1,0.5]];portConstraint=eastwest;" parent="Sv2H_rABcHJF4czR625y-74" vertex="1">
                    <mxGeometry y="26" width="260" height="26" as="geometry"/>
                </mxCell>
                <mxCell id="_KJiNsTdMnDBmthVbYk2-5" value="- lecture: Lecture" style="text;strokeColor=none;fillColor=none;align=left;verticalAlign=top;spacingLeft=4;spacingRight=4;overflow=hidden;rotatable=0;points=[[0,0.5],[1,0.5]];portConstraint=eastwest;" parent="Sv2H_rABcHJF4czR625y-74" vertex="1">
                    <mxGeometry y="52" width="260" height="26" as="geometry"/>
                </mxCell>
                <mxCell id="4mFP-AUnUqjv986MjFmd-33" value="- sessionHour: LectureHour[][]" style="text;strokeColor=none;fillColor=none;align=left;verticalAlign=top;spacingLeft=4;spacingRight=4;overflow=hidden;rotatable=0;points=[[0,0.5],[1,0.5]];portConstraint=eastwest;" parent="Sv2H_rABcHJF4czR625y-74" vertex="1">
                    <mxGeometry y="78" width="260" height="26" as="geometry"/>
                </mxCell>
                <mxCell id="4mFP-AUnUqjv986MjFmd-34" value="- sessionType: SessionType" style="text;strokeColor=none;fillColor=none;align=left;verticalAlign=top;spacingLeft=4;spacingRight=4;overflow=hidden;rotatable=0;points=[[0,0.5],[1,0.5]];portConstraint=eastwest;" parent="Sv2H_rABcHJF4czR625y-74" vertex="1">
                    <mxGeometry y="104" width="260" height="26" as="geometry"/>
                </mxCell>
                <mxCell id="4mFP-AUnUqjv986MjFmd-35" value="- instructor: Instructor" style="text;strokeColor=none;fillColor=none;align=left;verticalAlign=top;spacingLeft=4;spacingRight=4;overflow=hidden;rotatable=0;points=[[0,0.5],[1,0.5]];portConstraint=eastwest;" parent="Sv2H_rABcHJF4czR625y-74" vertex="1">
                    <mxGeometry y="130" width="260" height="26" as="geometry"/>
                </mxCell>
                <mxCell id="4mFP-AUnUqjv986MjFmd-36" value="- listOfAssistants: ArrayList&lt;Assistant&gt;" style="text;strokeColor=none;fillColor=none;align=left;verticalAlign=top;spacingLeft=4;spacingRight=4;overflow=hidden;rotatable=0;points=[[0,0.5],[1,0.5]];portConstraint=eastwest;" parent="Sv2H_rABcHJF4czR625y-74" vertex="1">
                    <mxGeometry y="156" width="260" height="26" as="geometry"/>
                </mxCell>
                <mxCell id="CaGFxNKdIuVeOpa1Jxo8-8" value="- listOfStudents: ArrayList&lt;Student&gt;" style="text;strokeColor=none;fillColor=none;align=left;verticalAlign=top;spacingLeft=4;spacingRight=4;overflow=hidden;rotatable=0;points=[[0,0.5],[1,0.5]];portConstraint=eastwest;" parent="Sv2H_rABcHJF4czR625y-74" vertex="1">
                    <mxGeometry y="182" width="260" height="26" as="geometry"/>
                </mxCell>
                <mxCell id="Sv2H_rABcHJF4czR625y-76" value="" style="line;strokeWidth=1;fillColor=none;align=left;verticalAlign=middle;spacingTop=-1;spacingLeft=3;spacingRight=3;rotatable=0;labelPosition=right;points=[];portConstraint=eastwest;strokeColor=inherit;" parent="Sv2H_rABcHJF4czR625y-74" vertex="1">
                    <mxGeometry y="208" width="260" height="8" as="geometry"/>
                </mxCell>
                <mxCell id="BRYjogfGwO4EZ4AMCY0b-29" value="&lt;&lt;constructor&gt;&gt;LectureSession()" style="text;strokeColor=none;fillColor=none;align=left;verticalAlign=top;spacingLeft=4;spacingRight=4;overflow=hidden;rotatable=0;points=[[0,0.5],[1,0.5]];portConstraint=eastwest;" parent="Sv2H_rABcHJF4czR625y-74" vertex="1">
                    <mxGeometry y="216" width="260" height="26" as="geometry"/>
                </mxCell>
                <mxCell id="GpqEzXDei8LeBioLYVpC-6" value="StudentID" style="swimlane;fontStyle=1;align=center;verticalAlign=top;childLayout=stackLayout;horizontal=1;startSize=26;horizontalStack=0;resizeParent=1;resizeParentMax=0;resizeLast=0;collapsible=1;marginBottom=0;" parent="1" vertex="1">
                    <mxGeometry x="60" y="398" width="160" height="242" as="geometry"/>
                </mxCell>
                <mxCell id="GpqEzXDei8LeBioLYVpC-7" value="- departmentCode: int" style="text;strokeColor=none;fillColor=none;align=left;verticalAlign=top;spacingLeft=4;spacingRight=4;overflow=hidden;rotatable=0;points=[[0,0.5],[1,0.5]];portConstraint=eastwest;" parent="GpqEzXDei8LeBioLYVpC-6" vertex="1">
                    <mxGeometry y="26" width="160" height="26" as="geometry"/>
                </mxCell>
                <mxCell id="GpqEzXDei8LeBioLYVpC-8" value="- yearCode: int" style="text;strokeColor=none;fillColor=none;align=left;verticalAlign=top;spacingLeft=4;spacingRight=4;overflow=hidden;rotatable=0;points=[[0,0.5],[1,0.5]];portConstraint=eastwest;" parent="GpqEzXDei8LeBioLYVpC-6" vertex="1">
                    <mxGeometry y="52" width="160" height="26" as="geometry"/>
                </mxCell>
                <mxCell id="GpqEzXDei8LeBioLYVpC-9" value="- orderOfPlacement: int" style="text;strokeColor=none;fillColor=none;align=left;verticalAlign=top;spacingLeft=4;spacingRight=4;overflow=hidden;rotatable=0;points=[[0,0.5],[1,0.5]];portConstraint=eastwest;" parent="GpqEzXDei8LeBioLYVpC-6" vertex="1">
                    <mxGeometry y="78" width="160" height="26" as="geometry"/>
                </mxCell>
                <mxCell id="GpqEzXDei8LeBioLYVpC-10" value="" style="line;strokeWidth=1;fillColor=none;align=left;verticalAlign=middle;spacingTop=-1;spacingLeft=3;spacingRight=3;rotatable=0;labelPosition=right;points=[];portConstraint=eastwest;strokeColor=inherit;" parent="GpqEzXDei8LeBioLYVpC-6" vertex="1">
                    <mxGeometry y="104" width="160" height="8" as="geometry"/>
                </mxCell>
                <mxCell id="CaGFxNKdIuVeOpa1Jxo8-3" value="&lt;&lt;constructor&gt;&gt;StudentID()" style="text;strokeColor=none;fillColor=none;align=left;verticalAlign=top;spacingLeft=4;spacingRight=4;overflow=hidden;rotatable=0;points=[[0,0.5],[1,0.5]];portConstraint=eastwest;" parent="GpqEzXDei8LeBioLYVpC-6" vertex="1">
                    <mxGeometry y="112" width="160" height="26" as="geometry"/>
                </mxCell>
                <mxCell id="GpqEzXDei8LeBioLYVpC-11" value="+ setID(int, int, int): void" style="text;strokeColor=none;fillColor=none;align=left;verticalAlign=top;spacingLeft=4;spacingRight=4;overflow=hidden;rotatable=0;points=[[0,0.5],[1,0.5]];portConstraint=eastwest;" parent="GpqEzXDei8LeBioLYVpC-6" vertex="1">
                    <mxGeometry y="138" width="160" height="26" as="geometry"/>
                </mxCell>
                <mxCell id="GpqEzXDei8LeBioLYVpC-12" value="+ getID(): String" style="text;strokeColor=none;fillColor=none;align=left;verticalAlign=top;spacingLeft=4;spacingRight=4;overflow=hidden;rotatable=0;points=[[0,0.5],[1,0.5]];portConstraint=eastwest;" parent="GpqEzXDei8LeBioLYVpC-6" vertex="1">
                    <mxGeometry y="164" width="160" height="26" as="geometry"/>
                </mxCell>
                <mxCell id="CaGFxNKdIuVeOpa1Jxo8-4" value="+ setID(String): void" style="text;strokeColor=none;fillColor=none;align=left;verticalAlign=top;spacingLeft=4;spacingRight=4;overflow=hidden;rotatable=0;points=[[0,0.5],[1,0.5]];portConstraint=eastwest;" parent="GpqEzXDei8LeBioLYVpC-6" vertex="1">
                    <mxGeometry y="190" width="160" height="26" as="geometry"/>
                </mxCell>
                <mxCell id="CaGFxNKdIuVeOpa1Jxo8-7" value="- digitFixer(Integer): String" style="text;strokeColor=none;fillColor=none;align=left;verticalAlign=top;spacingLeft=4;spacingRight=4;overflow=hidden;rotatable=0;points=[[0,0.5],[1,0.5]];portConstraint=eastwest;" parent="GpqEzXDei8LeBioLYVpC-6" vertex="1">
                    <mxGeometry y="216" width="160" height="26" as="geometry"/>
                </mxCell>
                <mxCell id="GpqEzXDei8LeBioLYVpC-13" value="InstructorID" style="swimlane;fontStyle=1;align=center;verticalAlign=top;childLayout=stackLayout;horizontal=1;startSize=26;horizontalStack=0;resizeParent=1;resizeParentMax=0;resizeLast=0;collapsible=1;marginBottom=0;" parent="1" vertex="1">
                    <mxGeometry x="330" y="20" width="160" height="190" as="geometry"/>
                </mxCell>
                <mxCell id="GpqEzXDei8LeBioLYVpC-14" value="- departmentCode: int" style="text;strokeColor=none;fillColor=none;align=left;verticalAlign=top;spacingLeft=4;spacingRight=4;overflow=hidden;rotatable=0;points=[[0,0.5],[1,0.5]];portConstraint=eastwest;" parent="GpqEzXDei8LeBioLYVpC-13" vertex="1">
                    <mxGeometry y="26" width="160" height="26" as="geometry"/>
                </mxCell>
                <mxCell id="GpqEzXDei8LeBioLYVpC-16" value="- oderOfEntry: int" style="text;strokeColor=none;fillColor=none;align=left;verticalAlign=top;spacingLeft=4;spacingRight=4;overflow=hidden;rotatable=0;points=[[0,0.5],[1,0.5]];portConstraint=eastwest;" parent="GpqEzXDei8LeBioLYVpC-13" vertex="1">
                    <mxGeometry y="52" width="160" height="26" as="geometry"/>
                </mxCell>
                <mxCell id="GpqEzXDei8LeBioLYVpC-17" value="" style="line;strokeWidth=1;fillColor=none;align=left;verticalAlign=middle;spacingTop=-1;spacingLeft=3;spacingRight=3;rotatable=0;labelPosition=right;points=[];portConstraint=eastwest;strokeColor=inherit;" parent="GpqEzXDei8LeBioLYVpC-13" vertex="1">
                    <mxGeometry y="78" width="160" height="8" as="geometry"/>
                </mxCell>
                <mxCell id="CaGFxNKdIuVeOpa1Jxo8-1" value="&lt;&lt;constructor&gt;&gt;InstructorID()" style="text;strokeColor=none;fillColor=none;align=left;verticalAlign=top;spacingLeft=4;spacingRight=4;overflow=hidden;rotatable=0;points=[[0,0.5],[1,0.5]];portConstraint=eastwest;" parent="GpqEzXDei8LeBioLYVpC-13" vertex="1">
                    <mxGeometry y="86" width="160" height="26" as="geometry"/>
                </mxCell>
                <mxCell id="GpqEzXDei8LeBioLYVpC-18" value="+ setID(int, int): void" style="text;strokeColor=none;fillColor=none;align=left;verticalAlign=top;spacingLeft=4;spacingRight=4;overflow=hidden;rotatable=0;points=[[0,0.5],[1,0.5]];portConstraint=eastwest;" parent="GpqEzXDei8LeBioLYVpC-13" vertex="1">
                    <mxGeometry y="112" width="160" height="26" as="geometry"/>
                </mxCell>
                <mxCell id="GpqEzXDei8LeBioLYVpC-19" value="+ getID(): String" style="text;strokeColor=none;fillColor=none;align=left;verticalAlign=top;spacingLeft=4;spacingRight=4;overflow=hidden;rotatable=0;points=[[0,0.5],[1,0.5]];portConstraint=eastwest;" parent="GpqEzXDei8LeBioLYVpC-13" vertex="1">
                    <mxGeometry y="138" width="160" height="26" as="geometry"/>
                </mxCell>
                <mxCell id="CaGFxNKdIuVeOpa1Jxo8-5" value="- digitFixer(Integer): String" style="text;strokeColor=none;fillColor=none;align=left;verticalAlign=top;spacingLeft=4;spacingRight=4;overflow=hidden;rotatable=0;points=[[0,0.5],[1,0.5]];portConstraint=eastwest;" parent="GpqEzXDei8LeBioLYVpC-13" vertex="1">
                    <mxGeometry y="164" width="160" height="26" as="geometry"/>
                </mxCell>
                <mxCell id="GpqEzXDei8LeBioLYVpC-20" value="SessionID" style="swimlane;fontStyle=1;align=center;verticalAlign=top;childLayout=stackLayout;horizontal=1;startSize=26;horizontalStack=0;resizeParent=1;resizeParentMax=0;resizeLast=0;collapsible=1;marginBottom=0;" parent="1" vertex="1">
                    <mxGeometry x="60" y="20" width="160" height="138" as="geometry"/>
                </mxCell>
                <mxCell id="GpqEzXDei8LeBioLYVpC-21" value="- id: int" style="text;strokeColor=none;fillColor=none;align=left;verticalAlign=top;spacingLeft=4;spacingRight=4;overflow=hidden;rotatable=0;points=[[0,0.5],[1,0.5]];portConstraint=eastwest;" parent="GpqEzXDei8LeBioLYVpC-20" vertex="1">
                    <mxGeometry y="26" width="160" height="26" as="geometry"/>
                </mxCell>
                <mxCell id="GpqEzXDei8LeBioLYVpC-22" value="" style="line;strokeWidth=1;fillColor=none;align=left;verticalAlign=middle;spacingTop=-1;spacingLeft=3;spacingRight=3;rotatable=0;labelPosition=right;points=[];portConstraint=eastwest;strokeColor=inherit;" parent="GpqEzXDei8LeBioLYVpC-20" vertex="1">
                    <mxGeometry y="52" width="160" height="8" as="geometry"/>
                </mxCell>
                <mxCell id="CaGFxNKdIuVeOpa1Jxo8-2" value="&lt;&lt;constructor&gt;&gt;SessionID()" style="text;strokeColor=none;fillColor=none;align=left;verticalAlign=top;spacingLeft=4;spacingRight=4;overflow=hidden;rotatable=0;points=[[0,0.5],[1,0.5]];portConstraint=eastwest;" parent="GpqEzXDei8LeBioLYVpC-20" vertex="1">
                    <mxGeometry y="60" width="160" height="26" as="geometry"/>
                </mxCell>
                <mxCell id="GpqEzXDei8LeBioLYVpC-23" value="+ setID(int): void" style="text;strokeColor=none;fillColor=none;align=left;verticalAlign=top;spacingLeft=4;spacingRight=4;overflow=hidden;rotatable=0;points=[[0,0.5],[1,0.5]];portConstraint=eastwest;" parent="GpqEzXDei8LeBioLYVpC-20" vertex="1">
                    <mxGeometry y="86" width="160" height="26" as="geometry"/>
                </mxCell>
                <mxCell id="GpqEzXDei8LeBioLYVpC-24" value="+ getID(): String" style="text;strokeColor=none;fillColor=none;align=left;verticalAlign=top;spacingLeft=4;spacingRight=4;overflow=hidden;rotatable=0;points=[[0,0.5],[1,0.5]];portConstraint=eastwest;" parent="GpqEzXDei8LeBioLYVpC-20" vertex="1">
                    <mxGeometry y="112" width="160" height="26" as="geometry"/>
                </mxCell>
                <mxCell id="n8ZZXpKbyfj6zKWUehs0-8" value="Semester" style="swimlane;fontStyle=1;align=center;verticalAlign=top;childLayout=stackLayout;horizontal=1;startSize=26;horizontalStack=0;resizeParent=1;resizeParentMax=0;resizeLast=0;collapsible=1;marginBottom=0;" parent="1" vertex="1">
                    <mxGeometry x="30" y="1226" width="340" height="242" as="geometry"/>
                </mxCell>
                <mxCell id="n8ZZXpKbyfj6zKWUehs0-9" value="- listOfLecturesTaken: Map&lt;Lecture,LetterGrade&gt;" style="text;strokeColor=none;fillColor=none;align=left;verticalAlign=top;spacingLeft=4;spacingRight=4;overflow=hidden;rotatable=0;points=[[0,0.5],[1,0.5]];portConstraint=eastwest;" parent="n8ZZXpKbyfj6zKWUehs0-8" vertex="1">
                    <mxGeometry y="26" width="340" height="26" as="geometry"/>
                </mxCell>
                <mxCell id="n8ZZXpKbyfj6zKWUehs0-10" value="- creditsTaken: int" style="text;strokeColor=none;fillColor=none;align=left;verticalAlign=top;spacingLeft=4;spacingRight=4;overflow=hidden;rotatable=0;points=[[0,0.5],[1,0.5]];portConstraint=eastwest;" parent="n8ZZXpKbyfj6zKWUehs0-8" vertex="1">
                    <mxGeometry y="52" width="340" height="26" as="geometry"/>
                </mxCell>
                <mxCell id="n8ZZXpKbyfj6zKWUehs0-11" value="- creditsCompleted: int" style="text;strokeColor=none;fillColor=none;align=left;verticalAlign=top;spacingLeft=4;spacingRight=4;overflow=hidden;rotatable=0;points=[[0,0.5],[1,0.5]];portConstraint=eastwest;" parent="n8ZZXpKbyfj6zKWUehs0-8" vertex="1">
                    <mxGeometry y="78" width="340" height="26" as="geometry"/>
                </mxCell>
                <mxCell id="n8ZZXpKbyfj6zKWUehs0-12" value="- points: double" style="text;strokeColor=none;fillColor=none;align=left;verticalAlign=top;spacingLeft=4;spacingRight=4;overflow=hidden;rotatable=0;points=[[0,0.5],[1,0.5]];portConstraint=eastwest;" parent="n8ZZXpKbyfj6zKWUehs0-8" vertex="1">
                    <mxGeometry y="104" width="340" height="26" as="geometry"/>
                </mxCell>
                <mxCell id="BRYjogfGwO4EZ4AMCY0b-10" value="- yano: double" style="text;strokeColor=none;fillColor=none;align=left;verticalAlign=top;spacingLeft=4;spacingRight=4;overflow=hidden;rotatable=0;points=[[0,0.5],[1,0.5]];portConstraint=eastwest;" parent="n8ZZXpKbyfj6zKWUehs0-8" vertex="1">
                    <mxGeometry y="130" width="340" height="26" as="geometry"/>
                </mxCell>
                <mxCell id="n8ZZXpKbyfj6zKWUehs0-16" value="" style="line;strokeWidth=1;fillColor=none;align=left;verticalAlign=middle;spacingTop=-1;spacingLeft=3;spacingRight=3;rotatable=0;labelPosition=right;points=[];portConstraint=eastwest;strokeColor=inherit;" parent="n8ZZXpKbyfj6zKWUehs0-8" vertex="1">
                    <mxGeometry y="156" width="340" height="8" as="geometry"/>
                </mxCell>
                <mxCell id="BRYjogfGwO4EZ4AMCY0b-11" value="&lt;&lt;constructor&gt;&gt;Semester()" style="text;strokeColor=none;fillColor=none;align=left;verticalAlign=top;spacingLeft=4;spacingRight=4;overflow=hidden;rotatable=0;points=[[0,0.5],[1,0.5]];portConstraint=eastwest;" parent="n8ZZXpKbyfj6zKWUehs0-8" vertex="1">
                    <mxGeometry y="164" width="340" height="26" as="geometry"/>
                </mxCell>
                <mxCell id="n8ZZXpKbyfj6zKWUehs0-21" value="+ addLecture(Lecture,LectureGrade): void" style="text;strokeColor=none;fillColor=none;align=left;verticalAlign=top;spacingLeft=4;spacingRight=4;overflow=hidden;rotatable=0;points=[[0,0.5],[1,0.5]];portConstraint=eastwest;" parent="n8ZZXpKbyfj6zKWUehs0-8" vertex="1">
                    <mxGeometry y="190" width="340" height="26" as="geometry"/>
                </mxCell>
                <mxCell id="qOIYfSjJNfUWsh-ULUeU-1" value="+ removeLecture(Lecture,LectureGrade): void" style="text;strokeColor=none;fillColor=none;align=left;verticalAlign=top;spacingLeft=4;spacingRight=4;overflow=hidden;rotatable=0;points=[[0,0.5],[1,0.5]];portConstraint=eastwest;" parent="n8ZZXpKbyfj6zKWUehs0-8" vertex="1">
                    <mxGeometry y="216" width="340" height="26" as="geometry"/>
                </mxCell>
                <mxCell id="4mFP-AUnUqjv986MjFmd-16" value="&lt;&lt;Enum&gt;&gt;&#10;SessionType" style="swimlane;fontStyle=1;align=center;verticalAlign=top;childLayout=stackLayout;horizontal=1;startSize=40;horizontalStack=0;resizeParent=1;resizeParentMax=0;resizeLast=0;collapsible=1;marginBottom=0;" parent="1" vertex="1">
                    <mxGeometry x="1240" y="20" width="160" height="80" as="geometry"/>
                </mxCell>
                <mxCell id="4mFP-AUnUqjv986MjFmd-17" value="Theorytical&#10;Application" style="text;strokeColor=none;fillColor=none;align=left;verticalAlign=top;spacingLeft=4;spacingRight=4;overflow=hidden;rotatable=0;points=[[0,0.5],[1,0.5]];portConstraint=eastwest;" parent="4mFP-AUnUqjv986MjFmd-16" vertex="1">
                    <mxGeometry y="40" width="160" height="40" as="geometry"/>
                </mxCell>
                <mxCell id="lI1AC3695uIBytSDKQQq-10" value="LectureRegistrationApplication" style="swimlane;fontStyle=1;align=center;verticalAlign=top;childLayout=stackLayout;horizontal=1;startSize=26;horizontalStack=0;resizeParent=1;resizeParentMax=0;resizeLast=0;collapsible=1;marginBottom=0;" parent="1" vertex="1">
                    <mxGeometry x="30" y="1740" width="380" height="138" as="geometry"/>
                </mxCell>
                <mxCell id="lI1AC3695uIBytSDKQQq-11" value="- sessionSentForApproval: Map&lt;LectureSession,ApprovalSate&gt;" style="text;strokeColor=none;fillColor=none;align=left;verticalAlign=top;spacingLeft=4;spacingRight=4;overflow=hidden;rotatable=0;points=[[0,0.5],[1,0.5]];portConstraint=eastwest;" parent="lI1AC3695uIBytSDKQQq-10" vertex="1">
                    <mxGeometry y="26" width="380" height="26" as="geometry"/>
                </mxCell>
                <mxCell id="lI1AC3695uIBytSDKQQq-14" value="- advisor: Advisor" style="text;strokeColor=none;fillColor=none;align=left;verticalAlign=top;spacingLeft=4;spacingRight=4;overflow=hidden;rotatable=0;points=[[0,0.5],[1,0.5]];portConstraint=eastwest;" parent="lI1AC3695uIBytSDKQQq-10" vertex="1">
                    <mxGeometry y="52" width="380" height="26" as="geometry"/>
                </mxCell>
                <mxCell id="lI1AC3695uIBytSDKQQq-15" value="- student: Student" style="text;strokeColor=none;fillColor=none;align=left;verticalAlign=top;spacingLeft=4;spacingRight=4;overflow=hidden;rotatable=0;points=[[0,0.5],[1,0.5]];portConstraint=eastwest;" parent="lI1AC3695uIBytSDKQQq-10" vertex="1">
                    <mxGeometry y="78" width="380" height="26" as="geometry"/>
                </mxCell>
                <mxCell id="lI1AC3695uIBytSDKQQq-12" value="" style="line;strokeWidth=1;fillColor=none;align=left;verticalAlign=middle;spacingTop=-1;spacingLeft=3;spacingRight=3;rotatable=0;labelPosition=right;points=[];portConstraint=eastwest;strokeColor=inherit;" parent="lI1AC3695uIBytSDKQQq-10" vertex="1">
                    <mxGeometry y="104" width="380" height="8" as="geometry"/>
                </mxCell>
                <mxCell id="lI1AC3695uIBytSDKQQq-13" value="&lt;&lt;constructor&gt;&gt;LectureRegistrationApplication" style="text;strokeColor=none;fillColor=none;align=left;verticalAlign=top;spacingLeft=4;spacingRight=4;overflow=hidden;rotatable=0;points=[[0,0.5],[1,0.5]];portConstraint=eastwest;" parent="lI1AC3695uIBytSDKQQq-10" vertex="1">
                    <mxGeometry y="112" width="380" height="26" as="geometry"/>
                </mxCell>
                <mxCell id="lI1AC3695uIBytSDKQQq-16" value="Debt" style="swimlane;fontStyle=1;align=center;verticalAlign=top;childLayout=stackLayout;horizontal=1;startSize=26;horizontalStack=0;resizeParent=1;resizeParentMax=0;resizeLast=0;collapsible=1;marginBottom=0;" parent="1" vertex="1">
                    <mxGeometry x="340" y="502" width="160" height="112" as="geometry"/>
                </mxCell>
                <mxCell id="lI1AC3695uIBytSDKQQq-17" value="- amount: Double" style="text;strokeColor=none;fillColor=none;align=left;verticalAlign=top;spacingLeft=4;spacingRight=4;overflow=hidden;rotatable=0;points=[[0,0.5],[1,0.5]];portConstraint=eastwest;" parent="lI1AC3695uIBytSDKQQq-16" vertex="1">
                    <mxGeometry y="26" width="160" height="26" as="geometry"/>
                </mxCell>
                <mxCell id="lI1AC3695uIBytSDKQQq-20" value="- student: Student" style="text;strokeColor=none;fillColor=none;align=left;verticalAlign=top;spacingLeft=4;spacingRight=4;overflow=hidden;rotatable=0;points=[[0,0.5],[1,0.5]];portConstraint=eastwest;" parent="lI1AC3695uIBytSDKQQq-16" vertex="1">
                    <mxGeometry y="52" width="160" height="26" as="geometry"/>
                </mxCell>
                <mxCell id="lI1AC3695uIBytSDKQQq-18" value="" style="line;strokeWidth=1;fillColor=none;align=left;verticalAlign=middle;spacingTop=-1;spacingLeft=3;spacingRight=3;rotatable=0;labelPosition=right;points=[];portConstraint=eastwest;strokeColor=inherit;" parent="lI1AC3695uIBytSDKQQq-16" vertex="1">
                    <mxGeometry y="78" width="160" height="8" as="geometry"/>
                </mxCell>
                <mxCell id="cAbqjUgSmoloA-8wXHxn-5" value="&lt;&lt;constructor&gt;&gt;Debt()" style="text;strokeColor=none;fillColor=none;align=left;verticalAlign=top;spacingLeft=4;spacingRight=4;overflow=hidden;rotatable=0;points=[[0,0.5],[1,0.5]];portConstraint=eastwest;" parent="lI1AC3695uIBytSDKQQq-16" vertex="1">
                    <mxGeometry y="86" width="160" height="26" as="geometry"/>
                </mxCell>
                <mxCell id="lI1AC3695uIBytSDKQQq-24" value="&lt;&lt;Enum&gt;&gt;&#10;FilterType" style="swimlane;fontStyle=1;align=center;verticalAlign=top;childLayout=stackLayout;horizontal=1;startSize=40;horizontalStack=0;resizeParent=1;resizeParentMax=0;resizeLast=0;collapsible=1;marginBottom=0;" parent="1" vertex="1">
                    <mxGeometry x="1240" y="220" width="160" height="80" as="geometry"/>
                </mxCell>
                <mxCell id="lI1AC3695uIBytSDKQQq-25" value="Name&#10;ID" style="text;strokeColor=none;fillColor=none;align=left;verticalAlign=top;spacingLeft=4;spacingRight=4;overflow=hidden;rotatable=0;points=[[0,0.5],[1,0.5]];portConstraint=eastwest;" parent="lI1AC3695uIBytSDKQQq-24" vertex="1">
                    <mxGeometry y="40" width="160" height="40" as="geometry"/>
                </mxCell>
                <mxCell id="lI1AC3695uIBytSDKQQq-30" value="DataManager" style="swimlane;fontStyle=1;align=center;verticalAlign=top;childLayout=stackLayout;horizontal=1;startSize=26;horizontalStack=0;resizeParent=1;resizeParentMax=0;resizeLast=0;collapsible=1;marginBottom=0;" parent="1" vertex="1">
                    <mxGeometry x="1950" y="640" width="325" height="432" as="geometry"/>
                </mxCell>
                <mxCell id="lI1AC3695uIBytSDKQQq-31" value="- singleInstance: DataManager" style="text;strokeColor=none;fillColor=none;align=left;verticalAlign=top;spacingLeft=4;spacingRight=4;overflow=hidden;rotatable=0;points=[[0,0.5],[1,0.5]];portConstraint=eastwest;fontStyle=4" parent="lI1AC3695uIBytSDKQQq-30" vertex="1">
                    <mxGeometry y="26" width="325" height="26" as="geometry"/>
                </mxCell>
                <mxCell id="lI1AC3695uIBytSDKQQq-33" value="- listOfLectures: ArrayList&lt;Lecture&gt;" style="text;strokeColor=none;fillColor=none;align=left;verticalAlign=top;spacingLeft=4;spacingRight=4;overflow=hidden;rotatable=0;points=[[0,0.5],[1,0.5]];portConstraint=eastwest;" parent="lI1AC3695uIBytSDKQQq-30" vertex="1">
                    <mxGeometry y="52" width="325" height="26" as="geometry"/>
                </mxCell>
                <mxCell id="lI1AC3695uIBytSDKQQq-35" value="- listOfPeople: ArrayList&lt;Person&gt;&#10;" style="text;strokeColor=none;fillColor=none;align=left;verticalAlign=top;spacingLeft=4;spacingRight=4;overflow=hidden;rotatable=0;points=[[0,0.5],[1,0.5]];portConstraint=eastwest;" parent="lI1AC3695uIBytSDKQQq-30" vertex="1">
                    <mxGeometry y="78" width="325" height="26" as="geometry"/>
                </mxCell>
                <mxCell id="lI1AC3695uIBytSDKQQq-34" value="- cacheList: ArrayList&lt;Person&gt;" style="text;strokeColor=none;fillColor=none;align=left;verticalAlign=top;spacingLeft=4;spacingRight=4;overflow=hidden;rotatable=0;points=[[0,0.5],[1,0.5]];portConstraint=eastwest;" parent="lI1AC3695uIBytSDKQQq-30" vertex="1">
                    <mxGeometry y="104" width="325" height="26" as="geometry"/>
                </mxCell>
                <mxCell id="8PtlFXvbRBtUFJ21EwCO-23" value="&amp;nbsp;-jsonOperator: JsonOperator" style="text;html=1;strokeColor=none;fillColor=none;align=left;verticalAlign=middle;whiteSpace=wrap;rounded=0;" parent="lI1AC3695uIBytSDKQQq-30" vertex="1">
                    <mxGeometry y="130" width="325" height="30" as="geometry"/>
                </mxCell>
                <mxCell id="lI1AC3695uIBytSDKQQq-32" value="" style="line;strokeWidth=1;fillColor=none;align=left;verticalAlign=middle;spacingTop=-1;spacingLeft=3;spacingRight=3;rotatable=0;labelPosition=right;points=[];portConstraint=eastwest;strokeColor=inherit;" parent="lI1AC3695uIBytSDKQQq-30" vertex="1">
                    <mxGeometry y="160" width="325" height="8" as="geometry"/>
                </mxCell>
                <mxCell id="lI1AC3695uIBytSDKQQq-36" value="- &lt;&lt;constructor&gt;&gt;DataManager" style="text;strokeColor=none;fillColor=none;align=left;verticalAlign=top;spacingLeft=4;spacingRight=4;overflow=hidden;rotatable=0;points=[[0,0.5],[1,0.5]];portConstraint=eastwest;" parent="lI1AC3695uIBytSDKQQq-30" vertex="1">
                    <mxGeometry y="168" width="325" height="24" as="geometry"/>
                </mxCell>
                <mxCell id="8PtlFXvbRBtUFJ21EwCO-24" value="&amp;nbsp;+ findLecture(String, FilterType): Optional&amp;lt;Lecture&amp;gt;" style="text;html=1;strokeColor=none;fillColor=none;align=left;verticalAlign=middle;whiteSpace=wrap;rounded=0;" parent="lI1AC3695uIBytSDKQQq-30" vertex="1">
                    <mxGeometry y="192" width="325" height="30" as="geometry"/>
                </mxCell>
                <mxCell id="8PtlFXvbRBtUFJ21EwCO-26" value="&lt;span style=&quot;&quot;&gt;&amp;nbsp;+ findStudent(String, FilterType): Optional&amp;lt;Student&amp;gt;&lt;/span&gt;" style="text;html=1;strokeColor=none;fillColor=none;align=left;verticalAlign=middle;whiteSpace=wrap;rounded=0;" parent="lI1AC3695uIBytSDKQQq-30" vertex="1">
                    <mxGeometry y="222" width="325" height="30" as="geometry"/>
                </mxCell>
                <mxCell id="8PtlFXvbRBtUFJ21EwCO-25" value="&lt;span style=&quot;&quot;&gt;&amp;nbsp;+ findInstructer(String, FilterType): Optional&amp;lt;Instructer&amp;gt;&lt;/span&gt;" style="text;html=1;strokeColor=none;fillColor=none;align=left;verticalAlign=middle;whiteSpace=wrap;rounded=0;" parent="lI1AC3695uIBytSDKQQq-30" vertex="1">
                    <mxGeometry y="252" width="325" height="30" as="geometry"/>
                </mxCell>
                <mxCell id="8PtlFXvbRBtUFJ21EwCO-27" value="&lt;span style=&quot;&quot;&gt;&amp;nbsp;+ findAdvisor(String, FilterType): Optional&amp;lt;Advisor&amp;gt;&lt;/span&gt;" style="text;html=1;strokeColor=none;fillColor=none;align=left;verticalAlign=middle;whiteSpace=wrap;rounded=0;" parent="lI1AC3695uIBytSDKQQq-30" vertex="1">
                    <mxGeometry y="282" width="325" height="30" as="geometry"/>
                </mxCell>
                <mxCell id="8PtlFXvbRBtUFJ21EwCO-30" value="&amp;nbsp;+ searchLecture(String, FilterType): ArrayList&amp;lt;Lecture&amp;gt;" style="text;html=1;strokeColor=none;fillColor=none;align=left;verticalAlign=middle;whiteSpace=wrap;rounded=0;" parent="lI1AC3695uIBytSDKQQq-30" vertex="1">
                    <mxGeometry y="312" width="325" height="30" as="geometry"/>
                </mxCell>
                <mxCell id="8PtlFXvbRBtUFJ21EwCO-31" value="&lt;div style=&quot;&quot;&gt;&lt;span style=&quot;background-color: initial;&quot;&gt;&amp;nbsp;+ searchStudent(String, FilterType): ArrayList&amp;lt;Student&lt;/span&gt;&lt;span style=&quot;background-color: initial;&quot;&gt;&amp;gt;&lt;/span&gt;&lt;/div&gt;" style="text;html=1;strokeColor=none;fillColor=none;align=left;verticalAlign=middle;whiteSpace=wrap;rounded=0;" parent="lI1AC3695uIBytSDKQQq-30" vertex="1">
                    <mxGeometry y="342" width="325" height="30" as="geometry"/>
                </mxCell>
                <mxCell id="8PtlFXvbRBtUFJ21EwCO-32" value="&lt;span style=&quot;&quot;&gt;&amp;nbsp;+ searchInstructor(String, FilterType): ArrayList&amp;lt;Instructor&lt;/span&gt;&lt;span style=&quot;&quot;&gt;&amp;gt;&lt;/span&gt;" style="text;html=1;strokeColor=none;fillColor=none;align=left;verticalAlign=middle;whiteSpace=wrap;rounded=0;" parent="lI1AC3695uIBytSDKQQq-30" vertex="1">
                    <mxGeometry y="372" width="325" height="30" as="geometry"/>
                </mxCell>
                <mxCell id="8PtlFXvbRBtUFJ21EwCO-33" value="&lt;span style=&quot;&quot;&gt;&amp;nbsp;+ searchAdvisor(String, FilterType): ArrayList&amp;lt;Advisor&lt;/span&gt;&lt;span style=&quot;&quot;&gt;&amp;gt;&lt;/span&gt;" style="text;html=1;strokeColor=none;fillColor=none;align=left;verticalAlign=middle;whiteSpace=wrap;rounded=0;" parent="lI1AC3695uIBytSDKQQq-30" vertex="1">
                    <mxGeometry y="402" width="325" height="30" as="geometry"/>
                </mxCell>
                <mxCell id="lI1AC3695uIBytSDKQQq-44" value="Implement" style="endArrow=block;endSize=16;endFill=0;html=1;rounded=0;" parent="1" source="GpqEzXDei8LeBioLYVpC-6" target="Sv2H_rABcHJF4czR625y-42" edge="1">
                    <mxGeometry width="160" relative="1" as="geometry">
                        <mxPoint x="60" y="360" as="sourcePoint"/>
                        <mxPoint x="220" y="360" as="targetPoint"/>
                    </mxGeometry>
                </mxCell>
                <mxCell id="lI1AC3695uIBytSDKQQq-45" value="Implement" style="endArrow=block;endSize=16;endFill=0;html=1;rounded=0;" parent="1" source="Sv2H_rABcHJF4czR625y-46" target="Sv2H_rABcHJF4czR625y-42" edge="1">
                    <mxGeometry width="160" relative="1" as="geometry">
                        <mxPoint x="320" y="270" as="sourcePoint"/>
                        <mxPoint x="480" y="270" as="targetPoint"/>
                    </mxGeometry>
                </mxCell>
                <mxCell id="lI1AC3695uIBytSDKQQq-46" value="Implement" style="endArrow=block;endSize=16;endFill=0;html=1;rounded=0;" parent="1" source="GpqEzXDei8LeBioLYVpC-13" target="Sv2H_rABcHJF4czR625y-42" edge="1">
                    <mxGeometry width="160" relative="1" as="geometry">
                        <mxPoint x="240" y="40" as="sourcePoint"/>
                        <mxPoint x="400" y="40" as="targetPoint"/>
                    </mxGeometry>
                </mxCell>
                <mxCell id="lI1AC3695uIBytSDKQQq-47" value="Implement" style="endArrow=block;endSize=16;endFill=0;html=1;rounded=0;" parent="1" source="GpqEzXDei8LeBioLYVpC-20" target="Sv2H_rABcHJF4czR625y-42" edge="1">
                    <mxGeometry width="160" relative="1" as="geometry">
                        <mxPoint x="60" y="160" as="sourcePoint"/>
                        <mxPoint x="220" y="160" as="targetPoint"/>
                    </mxGeometry>
                </mxCell>
                <mxCell id="lI1AC3695uIBytSDKQQq-48" value="Inherit" style="endArrow=block;endSize=16;endFill=0;html=1;rounded=0;" parent="1" source="Sv2H_rABcHJF4czR625y-33" target="Sv2H_rABcHJF4czR625y-14" edge="1">
                    <mxGeometry width="160" relative="1" as="geometry">
                        <mxPoint x="710" y="847.9999999999998" as="sourcePoint"/>
                        <mxPoint x="710" y="770" as="targetPoint"/>
                    </mxGeometry>
                </mxCell>
                <mxCell id="lI1AC3695uIBytSDKQQq-49" value="Inherit" style="endArrow=block;endSize=16;endFill=0;html=1;rounded=0;" parent="1" source="Sv2H_rABcHJF4czR625y-14" target="Sv2H_rABcHJF4czR625y-1" edge="1">
                    <mxGeometry width="160" relative="1" as="geometry">
                        <mxPoint x="956.37" y="518.9999999999998" as="sourcePoint"/>
                        <mxPoint x="956.37" y="441" as="targetPoint"/>
                    </mxGeometry>
                </mxCell>
                <mxCell id="lI1AC3695uIBytSDKQQq-50" value="Inherit" style="endArrow=block;endSize=16;endFill=0;html=1;rounded=0;" parent="1" source="Sv2H_rABcHJF4czR625y-7" target="Sv2H_rABcHJF4czR625y-1" edge="1">
                    <mxGeometry width="160" relative="1" as="geometry">
                        <mxPoint x="570" y="547.9999999999998" as="sourcePoint"/>
                        <mxPoint x="570" y="470" as="targetPoint"/>
                    </mxGeometry>
                </mxCell>
                <mxCell id="BRYjogfGwO4EZ4AMCY0b-19" value="&lt;&lt;Enum&gt;&gt;&#10;LetterGrade" style="swimlane;fontStyle=1;align=center;verticalAlign=top;childLayout=stackLayout;horizontal=1;startSize=40;horizontalStack=0;resizeParent=1;resizeParentMax=0;resizeLast=0;collapsible=1;marginBottom=0;" parent="1" vertex="1">
                    <mxGeometry x="1440" y="20" width="190" height="230" as="geometry"/>
                </mxCell>
                <mxCell id="BRYjogfGwO4EZ4AMCY0b-20" value="AA = 4.00&#10;BA = 3.50&#10;BB = 3.00&#10;CB = 2.50&#10;CC = 2.00&#10;DC = 1.50&#10;DD = 1.00&#10;FD = 0.50&#10;FF = 0.00&#10;NON" style="text;strokeColor=none;fillColor=none;align=left;verticalAlign=top;spacingLeft=4;spacingRight=4;overflow=hidden;rotatable=0;points=[[0,0.5],[1,0.5]];portConstraint=eastwest;" parent="BRYjogfGwO4EZ4AMCY0b-19" vertex="1">
                    <mxGeometry y="40" width="190" height="150" as="geometry"/>
                </mxCell>
                <mxCell id="BRYjogfGwO4EZ4AMCY0b-21" value="" style="line;strokeWidth=1;fillColor=none;align=left;verticalAlign=middle;spacingTop=-1;spacingLeft=3;spacingRight=3;rotatable=0;labelPosition=right;points=[];portConstraint=eastwest;strokeColor=inherit;" parent="BRYjogfGwO4EZ4AMCY0b-19" vertex="1">
                    <mxGeometry y="190" width="190" height="8" as="geometry"/>
                </mxCell>
                <mxCell id="BRYjogfGwO4EZ4AMCY0b-22" value="&lt;&lt;constructor&gt;&gt;LetterGrade()" style="text;strokeColor=none;fillColor=none;align=left;verticalAlign=top;spacingLeft=4;spacingRight=4;overflow=hidden;rotatable=0;points=[[0,0.5],[1,0.5]];portConstraint=eastwest;" parent="BRYjogfGwO4EZ4AMCY0b-19" vertex="1">
                    <mxGeometry y="198" width="190" height="32" as="geometry"/>
                </mxCell>
                <mxCell id="CU2UcYCGGvy0B9QFxN74-23" value="PersonJSON" style="swimlane;fontStyle=1;align=center;verticalAlign=top;childLayout=stackLayout;horizontal=1;startSize=26;horizontalStack=0;resizeParent=1;resizeParentMax=0;resizeLast=0;collapsible=1;marginBottom=0;" parent="1" vertex="1">
                    <mxGeometry x="825" y="1150" width="180" height="112" as="geometry"/>
                </mxCell>
                <mxCell id="CU2UcYCGGvy0B9QFxN74-24" value="# firstName: String" style="text;strokeColor=none;fillColor=none;align=left;verticalAlign=top;spacingLeft=4;spacingRight=4;overflow=hidden;rotatable=0;points=[[0,0.5],[1,0.5]];portConstraint=eastwest;" parent="CU2UcYCGGvy0B9QFxN74-23" vertex="1">
                    <mxGeometry y="26" width="180" height="26" as="geometry"/>
                </mxCell>
                <mxCell id="CU2UcYCGGvy0B9QFxN74-27" value="# lastName: String" style="text;strokeColor=none;fillColor=none;align=left;verticalAlign=top;spacingLeft=4;spacingRight=4;overflow=hidden;rotatable=0;points=[[0,0.5],[1,0.5]];portConstraint=eastwest;" parent="CU2UcYCGGvy0B9QFxN74-23" vertex="1">
                    <mxGeometry y="52" width="180" height="26" as="geometry"/>
                </mxCell>
                <mxCell id="CU2UcYCGGvy0B9QFxN74-25" value="" style="line;strokeWidth=1;fillColor=none;align=left;verticalAlign=middle;spacingTop=-1;spacingLeft=3;spacingRight=3;rotatable=0;labelPosition=right;points=[];portConstraint=eastwest;strokeColor=inherit;" parent="CU2UcYCGGvy0B9QFxN74-23" vertex="1">
                    <mxGeometry y="78" width="180" height="8" as="geometry"/>
                </mxCell>
                <mxCell id="CU2UcYCGGvy0B9QFxN74-26" value="&lt;&lt;constructor&gt;&gt;PersonJson()" style="text;strokeColor=none;fillColor=none;align=left;verticalAlign=top;spacingLeft=4;spacingRight=4;overflow=hidden;rotatable=0;points=[[0,0.5],[1,0.5]];portConstraint=eastwest;" parent="CU2UcYCGGvy0B9QFxN74-23" vertex="1">
                    <mxGeometry y="86" width="180" height="26" as="geometry"/>
                </mxCell>
                <mxCell id="CU2UcYCGGvy0B9QFxN74-36" value="Inherit" style="endArrow=block;endSize=16;endFill=0;html=1;rounded=0;" parent="1" target="CU2UcYCGGvy0B9QFxN74-23" edge="1">
                    <mxGeometry width="160" relative="1" as="geometry">
                        <mxPoint x="1070" y="1349.7272727272725" as="sourcePoint"/>
                        <mxPoint x="1370" y="1180" as="targetPoint"/>
                    </mxGeometry>
                </mxCell>
                <mxCell id="CU2UcYCGGvy0B9QFxN74-37" value="Inherit" style="endArrow=block;endSize=16;endFill=0;html=1;rounded=0;" parent="1" target="CU2UcYCGGvy0B9QFxN74-23" edge="1">
                    <mxGeometry width="160" relative="1" as="geometry">
                        <mxPoint x="876.6176470588236" y="1379.9999999999998" as="sourcePoint"/>
                        <mxPoint x="1318.75" y="1390" as="targetPoint"/>
                    </mxGeometry>
                </mxCell>
                <mxCell id="CU2UcYCGGvy0B9QFxN74-38" value="Inherit" style="endArrow=block;endSize=16;endFill=0;html=1;rounded=0;entryX=0.494;entryY=1.147;entryDx=0;entryDy=0;entryPerimeter=0;" parent="1" target="45" edge="1">
                    <mxGeometry width="160" relative="1" as="geometry">
                        <mxPoint x="878.8958947668809" y="1638" as="sourcePoint"/>
                        <mxPoint x="870" y="1570" as="targetPoint"/>
                    </mxGeometry>
                </mxCell>
                <mxCell id="CU2UcYCGGvy0B9QFxN74-39" value="&lt;&lt;Enum&gt;&gt;&#10;LectureType" style="swimlane;fontStyle=1;align=center;verticalAlign=top;childLayout=stackLayout;horizontal=1;startSize=40;horizontalStack=0;resizeParent=1;resizeParentMax=0;resizeLast=0;collapsible=1;marginBottom=0;" parent="1" vertex="1">
                    <mxGeometry x="1470" y="320" width="160" height="120" as="geometry"/>
                </mxCell>
                <mxCell id="CU2UcYCGGvy0B9QFxN74-40" value="NTE&#10;UE&#10;TE&#10;FTE&#10;MANDATORY" style="text;strokeColor=none;fillColor=none;align=left;verticalAlign=top;spacingLeft=4;spacingRight=4;overflow=hidden;rotatable=0;points=[[0,0.5],[1,0.5]];portConstraint=eastwest;" parent="CU2UcYCGGvy0B9QFxN74-39" vertex="1">
                    <mxGeometry y="40" width="160" height="80" as="geometry"/>
                </mxCell>
                <mxCell id="CU2UcYCGGvy0B9QFxN74-46" value="JsonOperator" style="swimlane;fontStyle=1;align=center;verticalAlign=top;childLayout=stackLayout;horizontal=1;startSize=26;horizontalStack=0;resizeParent=1;resizeParentMax=0;resizeLast=0;collapsible=1;marginBottom=0;" parent="1" vertex="1">
                    <mxGeometry x="2010" y="30" width="250" height="566" as="geometry"/>
                </mxCell>
                <mxCell id="CU2UcYCGGvy0B9QFxN74-47" value="- lectureList: ArrayList&lt;LectureJSON&gt;" style="text;strokeColor=none;fillColor=none;align=left;verticalAlign=top;spacingLeft=4;spacingRight=4;overflow=hidden;rotatable=0;points=[[0,0.5],[1,0.5]];portConstraint=eastwest;fontStyle=0" parent="CU2UcYCGGvy0B9QFxN74-46" vertex="1">
                    <mxGeometry y="26" width="250" height="26" as="geometry"/>
                </mxCell>
                <mxCell id="8PtlFXvbRBtUFJ21EwCO-34" value="&lt;span style=&quot;&quot;&gt;&amp;nbsp;- studentList: ArrayList&amp;lt;StudentJSON&amp;gt;&lt;/span&gt;" style="text;html=1;strokeColor=none;fillColor=none;align=left;verticalAlign=middle;whiteSpace=wrap;rounded=0;" parent="CU2UcYCGGvy0B9QFxN74-46" vertex="1">
                    <mxGeometry y="52" width="250" height="30" as="geometry"/>
                </mxCell>
                <mxCell id="8PtlFXvbRBtUFJ21EwCO-35" value="&lt;span style=&quot;&quot;&gt;&amp;nbsp;- transcriptList: ArrayList&amp;lt;TranscriptJSON&amp;gt;&lt;/span&gt;" style="text;html=1;strokeColor=none;fillColor=none;align=left;verticalAlign=middle;whiteSpace=wrap;rounded=0;" parent="CU2UcYCGGvy0B9QFxN74-46" vertex="1">
                    <mxGeometry y="82" width="250" height="30" as="geometry"/>
                </mxCell>
                <mxCell id="8PtlFXvbRBtUFJ21EwCO-36" value="&lt;span style=&quot;&quot;&gt;&amp;nbsp;- advisorList: ArrayList&amp;lt;AdvisorJSON&amp;gt;&lt;/span&gt;" style="text;html=1;strokeColor=none;fillColor=none;align=left;verticalAlign=middle;whiteSpace=wrap;rounded=0;" parent="CU2UcYCGGvy0B9QFxN74-46" vertex="1">
                    <mxGeometry y="112" width="250" height="30" as="geometry"/>
                </mxCell>
                <mxCell id="8PtlFXvbRBtUFJ21EwCO-37" value="&amp;nbsp;- lectureObjectList: ArrayList&amp;lt;Lecture&amp;gt;" style="text;html=1;strokeColor=none;fillColor=none;align=left;verticalAlign=middle;whiteSpace=wrap;rounded=0;" parent="CU2UcYCGGvy0B9QFxN74-46" vertex="1">
                    <mxGeometry y="142" width="250" height="30" as="geometry"/>
                </mxCell>
                <mxCell id="8PtlFXvbRBtUFJ21EwCO-38" value="&lt;span style=&quot;&quot;&gt;&amp;nbsp;- lstudentObjectList: ArrayList&amp;lt;Student&amp;gt;&lt;/span&gt;" style="text;html=1;strokeColor=none;fillColor=none;align=left;verticalAlign=middle;whiteSpace=wrap;rounded=0;" parent="CU2UcYCGGvy0B9QFxN74-46" vertex="1">
                    <mxGeometry y="172" width="250" height="30" as="geometry"/>
                </mxCell>
                <mxCell id="8PtlFXvbRBtUFJ21EwCO-39" value="&lt;span style=&quot;&quot;&gt;&amp;nbsp;- transcriptObjectList: ArrayList&amp;lt;Transcript&amp;gt;&lt;/span&gt;" style="text;html=1;strokeColor=none;fillColor=none;align=left;verticalAlign=middle;whiteSpace=wrap;rounded=0;" parent="CU2UcYCGGvy0B9QFxN74-46" vertex="1">
                    <mxGeometry y="202" width="250" height="30" as="geometry"/>
                </mxCell>
                <mxCell id="8PtlFXvbRBtUFJ21EwCO-40" value="&lt;span style=&quot;&quot;&gt;&amp;nbsp;- advisorObjectList: ArrayList&amp;lt;Advisor&amp;gt;&lt;/span&gt;" style="text;html=1;strokeColor=none;fillColor=none;align=left;verticalAlign=middle;whiteSpace=wrap;rounded=0;" parent="CU2UcYCGGvy0B9QFxN74-46" vertex="1">
                    <mxGeometry y="232" width="250" height="30" as="geometry"/>
                </mxCell>
                <mxCell id="8PtlFXvbRBtUFJ21EwCO-41" value="&amp;nbsp;- objectGenerator: ObjectGenerator" style="text;html=1;strokeColor=none;fillColor=none;align=left;verticalAlign=middle;whiteSpace=wrap;rounded=0;" parent="CU2UcYCGGvy0B9QFxN74-46" vertex="1">
                    <mxGeometry y="262" width="250" height="30" as="geometry"/>
                </mxCell>
                <mxCell id="8PtlFXvbRBtUFJ21EwCO-42" value="&amp;nbsp;- metaData: MetaData" style="text;html=1;strokeColor=none;fillColor=none;align=left;verticalAlign=middle;whiteSpace=wrap;rounded=0;" parent="CU2UcYCGGvy0B9QFxN74-46" vertex="1">
                    <mxGeometry y="292" width="250" height="30" as="geometry"/>
                </mxCell>
                <mxCell id="8PtlFXvbRBtUFJ21EwCO-43" value="&amp;nbsp;- namePool: NamePool" style="text;html=1;strokeColor=none;fillColor=none;align=left;verticalAlign=middle;whiteSpace=wrap;rounded=0;" parent="CU2UcYCGGvy0B9QFxN74-46" vertex="1">
                    <mxGeometry y="322" width="250" height="30" as="geometry"/>
                </mxCell>
                <mxCell id="CU2UcYCGGvy0B9QFxN74-48" value="" style="line;strokeWidth=1;fillColor=none;align=left;verticalAlign=middle;spacingTop=-1;spacingLeft=3;spacingRight=3;rotatable=0;labelPosition=right;points=[];portConstraint=eastwest;strokeColor=inherit;" parent="CU2UcYCGGvy0B9QFxN74-46" vertex="1">
                    <mxGeometry y="352" width="250" height="8" as="geometry"/>
                </mxCell>
                <mxCell id="CU2UcYCGGvy0B9QFxN74-49" value="- &lt;&lt;constructor&gt;&gt;JsonOperator()" style="text;strokeColor=none;fillColor=none;align=left;verticalAlign=top;spacingLeft=4;spacingRight=4;overflow=hidden;rotatable=0;points=[[0,0.5],[1,0.5]];portConstraint=eastwest;" parent="CU2UcYCGGvy0B9QFxN74-46" vertex="1">
                    <mxGeometry y="360" width="250" height="26" as="geometry"/>
                </mxCell>
                <mxCell id="8PtlFXvbRBtUFJ21EwCO-44" value="&amp;nbsp;+ readNamePool(): void" style="text;html=1;strokeColor=none;fillColor=none;align=left;verticalAlign=middle;whiteSpace=wrap;rounded=0;" parent="CU2UcYCGGvy0B9QFxN74-46" vertex="1">
                    <mxGeometry y="386" width="250" height="30" as="geometry"/>
                </mxCell>
                <mxCell id="8PtlFXvbRBtUFJ21EwCO-45" value="&amp;nbsp;+ readLectureJSON(String): void" style="text;html=1;strokeColor=none;fillColor=none;align=left;verticalAlign=middle;whiteSpace=wrap;rounded=0;" parent="CU2UcYCGGvy0B9QFxN74-46" vertex="1">
                    <mxGeometry y="416" width="250" height="30" as="geometry"/>
                </mxCell>
                <mxCell id="8PtlFXvbRBtUFJ21EwCO-28" value="&amp;nbsp;+ readStudentJSON(String): void" style="text;html=1;strokeColor=none;fillColor=none;align=left;verticalAlign=middle;whiteSpace=wrap;rounded=0;" parent="CU2UcYCGGvy0B9QFxN74-46" vertex="1">
                    <mxGeometry y="446" width="250" height="30" as="geometry"/>
                </mxCell>
                <mxCell id="8PtlFXvbRBtUFJ21EwCO-46" value="&amp;nbsp;+ readTranscriptJSON(String): void" style="text;html=1;strokeColor=none;fillColor=none;align=left;verticalAlign=middle;whiteSpace=wrap;rounded=0;" parent="CU2UcYCGGvy0B9QFxN74-46" vertex="1">
                    <mxGeometry y="476" width="250" height="30" as="geometry"/>
                </mxCell>
                <mxCell id="8PtlFXvbRBtUFJ21EwCO-47" value="&amp;nbsp;+ readAdvisorJSON(String): void" style="text;html=1;strokeColor=none;fillColor=none;align=left;verticalAlign=middle;whiteSpace=wrap;rounded=0;" parent="CU2UcYCGGvy0B9QFxN74-46" vertex="1">
                    <mxGeometry y="506" width="250" height="30" as="geometry"/>
                </mxCell>
                <mxCell id="8PtlFXvbRBtUFJ21EwCO-50" value="&amp;nbsp;+ generateObjects(): void" style="text;html=1;strokeColor=none;fillColor=none;align=left;verticalAlign=middle;whiteSpace=wrap;rounded=0;" parent="CU2UcYCGGvy0B9QFxN74-46" vertex="1">
                    <mxGeometry y="536" width="250" height="30" as="geometry"/>
                </mxCell>
                <mxCell id="CU2UcYCGGvy0B9QFxN74-52" value="&lt;&lt;Enum&gt;&gt;&#10;InstructorType" style="swimlane;fontStyle=1;align=center;verticalAlign=top;childLayout=stackLayout;horizontal=1;startSize=40;horizontalStack=0;resizeParent=1;resizeParentMax=0;resizeLast=0;collapsible=1;marginBottom=0;" parent="1" vertex="1">
                    <mxGeometry x="1060" y="20" width="160" height="80" as="geometry"/>
                </mxCell>
                <mxCell id="CU2UcYCGGvy0B9QFxN74-53" value="Assistant&#10;Instructor" style="text;strokeColor=none;fillColor=none;align=left;verticalAlign=top;spacingLeft=4;spacingRight=4;overflow=hidden;rotatable=0;points=[[0,0.5],[1,0.5]];portConstraint=eastwest;" parent="CU2UcYCGGvy0B9QFxN74-52" vertex="1">
                    <mxGeometry y="40" width="160" height="40" as="geometry"/>
                </mxCell>
                <mxCell id="CU2UcYCGGvy0B9QFxN74-54" value="&lt;&lt;Enum&gt;&gt;&#10;ApprovalState" style="swimlane;fontStyle=1;align=center;verticalAlign=top;childLayout=stackLayout;horizontal=1;startSize=40;horizontalStack=0;resizeParent=1;resizeParentMax=0;resizeLast=0;collapsible=1;marginBottom=0;" parent="1" vertex="1">
                    <mxGeometry x="1240" y="318" width="160" height="90" as="geometry"/>
                </mxCell>
                <mxCell id="CU2UcYCGGvy0B9QFxN74-55" value="Approved&#10;Rejected&#10;Pending" style="text;strokeColor=none;fillColor=none;align=left;verticalAlign=top;spacingLeft=4;spacingRight=4;overflow=hidden;rotatable=0;points=[[0,0.5],[1,0.5]];portConstraint=eastwest;" parent="CU2UcYCGGvy0B9QFxN74-54" vertex="1">
                    <mxGeometry y="40" width="160" height="50" as="geometry"/>
                </mxCell>
                <mxCell id="CU2UcYCGGvy0B9QFxN74-93" value="StudentRegistrationSystem" style="swimlane;fontStyle=1;align=center;verticalAlign=top;childLayout=stackLayout;horizontal=1;startSize=26;horizontalStack=0;resizeParent=1;resizeParentMax=0;resizeLast=0;collapsible=1;marginBottom=0;" parent="1" vertex="1">
                    <mxGeometry x="2000" y="1750" width="370" height="216" as="geometry"/>
                </mxCell>
                <mxCell id="CU2UcYCGGvy0B9QFxN74-94" value="- scanner: Scanner" style="text;strokeColor=none;fillColor=none;align=left;verticalAlign=top;spacingLeft=4;spacingRight=4;overflow=hidden;rotatable=0;points=[[0,0.5],[1,0.5]];portConstraint=eastwest;" parent="CU2UcYCGGvy0B9QFxN74-93" vertex="1">
                    <mxGeometry y="26" width="370" height="26" as="geometry"/>
                </mxCell>
                <mxCell id="CU2UcYCGGvy0B9QFxN74-95" value="- registrationSystem: RegistrationSystem" style="text;strokeColor=none;fillColor=none;align=left;verticalAlign=top;spacingLeft=4;spacingRight=4;overflow=hidden;rotatable=0;points=[[0,0.5],[1,0.5]];portConstraint=eastwest;" parent="CU2UcYCGGvy0B9QFxN74-93" vertex="1">
                    <mxGeometry y="52" width="370" height="26" as="geometry"/>
                </mxCell>
                <mxCell id="CU2UcYCGGvy0B9QFxN74-99" value="- objects1: ObjectCreator" style="text;strokeColor=none;fillColor=none;align=left;verticalAlign=top;spacingLeft=4;spacingRight=4;overflow=hidden;rotatable=0;points=[[0,0.5],[1,0.5]];portConstraint=eastwest;" parent="CU2UcYCGGvy0B9QFxN74-93" vertex="1">
                    <mxGeometry y="78" width="370" height="26" as="geometry"/>
                </mxCell>
                <mxCell id="CU2UcYCGGvy0B9QFxN74-96" value="" style="line;strokeWidth=1;fillColor=none;align=left;verticalAlign=middle;spacingTop=-1;spacingLeft=3;spacingRight=3;rotatable=0;labelPosition=right;points=[];portConstraint=eastwest;strokeColor=inherit;" parent="CU2UcYCGGvy0B9QFxN74-93" vertex="1">
                    <mxGeometry y="104" width="370" height="8" as="geometry"/>
                </mxCell>
                <mxCell id="CU2UcYCGGvy0B9QFxN74-97" value="&lt;&lt;constructor&gt;&gt;StudentRegistrationSystem(ObjectCreator):" style="text;strokeColor=none;fillColor=none;align=left;verticalAlign=top;spacingLeft=4;spacingRight=4;overflow=hidden;rotatable=0;points=[[0,0.5],[1,0.5]];portConstraint=eastwest;" parent="CU2UcYCGGvy0B9QFxN74-93" vertex="1">
                    <mxGeometry y="112" width="370" height="26" as="geometry"/>
                </mxCell>
                <mxCell id="CaGFxNKdIuVeOpa1Jxo8-18" value="- studentLogin(): void" style="text;strokeColor=none;fillColor=none;align=left;verticalAlign=top;spacingLeft=4;spacingRight=4;overflow=hidden;rotatable=0;points=[[0,0.5],[1,0.5]];portConstraint=eastwest;" parent="CU2UcYCGGvy0B9QFxN74-93" vertex="1">
                    <mxGeometry y="138" width="370" height="26" as="geometry"/>
                </mxCell>
                <mxCell id="CU2UcYCGGvy0B9QFxN74-100" value="- studentMenu(Student): void" style="text;strokeColor=none;fillColor=none;align=left;verticalAlign=top;spacingLeft=4;spacingRight=4;overflow=hidden;rotatable=0;points=[[0,0.5],[1,0.5]];portConstraint=eastwest;" parent="CU2UcYCGGvy0B9QFxN74-93" vertex="1">
                    <mxGeometry y="164" width="370" height="26" as="geometry"/>
                </mxCell>
                <mxCell id="CaGFxNKdIuVeOpa1Jxo8-38" value="- signOut(): void" style="text;strokeColor=none;fillColor=none;align=left;verticalAlign=top;spacingLeft=4;spacingRight=4;overflow=hidden;rotatable=0;points=[[0,0.5],[1,0.5]];portConstraint=eastwest;" parent="CU2UcYCGGvy0B9QFxN74-93" vertex="1">
                    <mxGeometry y="190" width="370" height="26" as="geometry"/>
                </mxCell>
                <mxCell id="pkPw4IBcylEgwEKD2Afy-1" value="InstructorRegistrationSystem" style="swimlane;fontStyle=1;align=center;verticalAlign=top;childLayout=stackLayout;horizontal=1;startSize=26;horizontalStack=0;resizeParent=1;resizeParentMax=0;resizeLast=0;collapsible=1;marginBottom=0;" parent="1" vertex="1">
                    <mxGeometry x="1470" y="2268" width="180" height="34" as="geometry">
                        <mxRectangle x="1470" y="2268" width="200" height="26" as="alternateBounds"/>
                    </mxGeometry>
                </mxCell>
                <mxCell id="pkPw4IBcylEgwEKD2Afy-3" value="" style="line;strokeWidth=1;fillColor=none;align=left;verticalAlign=middle;spacingTop=-1;spacingLeft=3;spacingRight=3;rotatable=0;labelPosition=right;points=[];portConstraint=eastwest;strokeColor=inherit;" parent="pkPw4IBcylEgwEKD2Afy-1" vertex="1">
                    <mxGeometry y="26" width="180" height="8" as="geometry"/>
                </mxCell>
                <mxCell id="pkPw4IBcylEgwEKD2Afy-9" value="AdvisorRegistrationSystem" style="swimlane;fontStyle=1;align=center;verticalAlign=top;childLayout=stackLayout;horizontal=1;startSize=26;horizontalStack=0;resizeParent=1;resizeParentMax=0;resizeLast=0;collapsible=1;marginBottom=0;" parent="1" vertex="1">
                    <mxGeometry x="1280" y="2268" width="180" height="34" as="geometry">
                        <mxRectangle x="1280" y="2268" width="190" height="26" as="alternateBounds"/>
                    </mxGeometry>
                </mxCell>
                <mxCell id="pkPw4IBcylEgwEKD2Afy-10" value="" style="line;strokeWidth=1;fillColor=none;align=left;verticalAlign=middle;spacingTop=-1;spacingLeft=3;spacingRight=3;rotatable=0;labelPosition=right;points=[];portConstraint=eastwest;strokeColor=inherit;" parent="pkPw4IBcylEgwEKD2Afy-9" vertex="1">
                    <mxGeometry y="26" width="180" height="8" as="geometry"/>
                </mxCell>
                <mxCell id="8PtlFXvbRBtUFJ21EwCO-22" value="&lt;div style=&quot;text-align: start;&quot;&gt;&lt;span style=&quot;background-color: initial; font-size: 0px;&quot;&gt;&lt;font face=&quot;monospace&quot; color=&quot;rgba(0, 0, 0, 0)&quot;&gt;sxsöxs&lt;/font&gt;&lt;/span&gt;&lt;/div&gt;" style="text;html=1;strokeColor=none;fillColor=none;align=center;verticalAlign=middle;whiteSpace=wrap;rounded=0;" parent="1" vertex="1">
                    <mxGeometry x="1770" y="1230" width="209" height="30" as="geometry"/>
                </mxCell>
                <mxCell id="8PtlFXvbRBtUFJ21EwCO-56" value="JsonReader" style="swimlane;fontStyle=1;align=center;verticalAlign=top;childLayout=stackLayout;horizontal=1;startSize=26;horizontalStack=0;resizeParent=1;resizeParentMax=0;resizeLast=0;collapsible=1;marginBottom=0;" parent="1" vertex="1">
                    <mxGeometry x="3030" y="10" width="250" height="138" as="geometry"/>
                </mxCell>
                <mxCell id="8PtlFXvbRBtUFJ21EwCO-57" value="- file: File" style="text;strokeColor=none;fillColor=none;align=left;verticalAlign=top;spacingLeft=4;spacingRight=4;overflow=hidden;rotatable=0;points=[[0,0.5],[1,0.5]];portConstraint=eastwest;" parent="8PtlFXvbRBtUFJ21EwCO-56" vertex="1">
                    <mxGeometry y="26" width="250" height="26" as="geometry"/>
                </mxCell>
                <mxCell id="8PtlFXvbRBtUFJ21EwCO-58" value="" style="line;strokeWidth=1;fillColor=none;align=left;verticalAlign=middle;spacingTop=-1;spacingLeft=3;spacingRight=3;rotatable=0;labelPosition=right;points=[];portConstraint=eastwest;strokeColor=inherit;" parent="8PtlFXvbRBtUFJ21EwCO-56" vertex="1">
                    <mxGeometry y="52" width="250" height="8" as="geometry"/>
                </mxCell>
                <mxCell id="8PtlFXvbRBtUFJ21EwCO-59" value="+ JsonReader(String)" style="text;strokeColor=none;fillColor=none;align=left;verticalAlign=top;spacingLeft=4;spacingRight=4;overflow=hidden;rotatable=0;points=[[0,0.5],[1,0.5]];portConstraint=eastwest;" parent="8PtlFXvbRBtUFJ21EwCO-56" vertex="1">
                    <mxGeometry y="60" width="250" height="26" as="geometry"/>
                </mxCell>
                <mxCell id="8PtlFXvbRBtUFJ21EwCO-60" value="+ JsonReader(File)" style="text;strokeColor=none;fillColor=none;align=left;verticalAlign=top;spacingLeft=4;spacingRight=4;overflow=hidden;rotatable=0;points=[[0,0.5],[1,0.5]];portConstraint=eastwest;" parent="8PtlFXvbRBtUFJ21EwCO-56" vertex="1">
                    <mxGeometry y="86" width="250" height="26" as="geometry"/>
                </mxCell>
                <mxCell id="8PtlFXvbRBtUFJ21EwCO-62" value="+ readJsonFiles(Class&lt;T&gt;): &lt;T&gt;" style="text;strokeColor=none;fillColor=none;align=left;verticalAlign=top;spacingLeft=4;spacingRight=4;overflow=hidden;rotatable=0;points=[[0,0.5],[1,0.5]];portConstraint=eastwest;" parent="8PtlFXvbRBtUFJ21EwCO-56" vertex="1">
                    <mxGeometry y="112" width="250" height="26" as="geometry"/>
                </mxCell>
                <mxCell id="8PtlFXvbRBtUFJ21EwCO-63" value="JsonWriter" style="swimlane;fontStyle=1;align=center;verticalAlign=top;childLayout=stackLayout;horizontal=1;startSize=26;horizontalStack=0;resizeParent=1;resizeParentMax=0;resizeLast=0;collapsible=1;marginBottom=0;" parent="1" vertex="1">
                    <mxGeometry x="3020" y="158" width="250" height="134" as="geometry"/>
                </mxCell>
                <mxCell id="8PtlFXvbRBtUFJ21EwCO-64" value="- file: File" style="text;strokeColor=none;fillColor=none;align=left;verticalAlign=top;spacingLeft=4;spacingRight=4;overflow=hidden;rotatable=0;points=[[0,0.5],[1,0.5]];portConstraint=eastwest;" parent="8PtlFXvbRBtUFJ21EwCO-63" vertex="1">
                    <mxGeometry y="26" width="250" height="26" as="geometry"/>
                </mxCell>
                <mxCell id="8PtlFXvbRBtUFJ21EwCO-65" value="" style="line;strokeWidth=1;fillColor=none;align=left;verticalAlign=middle;spacingTop=-1;spacingLeft=3;spacingRight=3;rotatable=0;labelPosition=right;points=[];portConstraint=eastwest;strokeColor=inherit;" parent="8PtlFXvbRBtUFJ21EwCO-63" vertex="1">
                    <mxGeometry y="52" width="250" height="8" as="geometry"/>
                </mxCell>
                <mxCell id="8PtlFXvbRBtUFJ21EwCO-66" value="+ JsonWriter(String)" style="text;strokeColor=none;fillColor=none;align=left;verticalAlign=top;spacingLeft=4;spacingRight=4;overflow=hidden;rotatable=0;points=[[0,0.5],[1,0.5]];portConstraint=eastwest;" parent="8PtlFXvbRBtUFJ21EwCO-63" vertex="1">
                    <mxGeometry y="60" width="250" height="26" as="geometry"/>
                </mxCell>
                <mxCell id="8PtlFXvbRBtUFJ21EwCO-67" value="+ JsonWriter(File)" style="text;strokeColor=none;fillColor=none;align=left;verticalAlign=top;spacingLeft=4;spacingRight=4;overflow=hidden;rotatable=0;points=[[0,0.5],[1,0.5]];portConstraint=eastwest;" parent="8PtlFXvbRBtUFJ21EwCO-63" vertex="1">
                    <mxGeometry y="86" width="250" height="22" as="geometry"/>
                </mxCell>
                <mxCell id="8PtlFXvbRBtUFJ21EwCO-68" value="+ writeJsonFiles(T): &lt;T&gt;" style="text;strokeColor=none;fillColor=none;align=left;verticalAlign=top;spacingLeft=4;spacingRight=4;overflow=hidden;rotatable=0;points=[[0,0.5],[1,0.5]];portConstraint=eastwest;" parent="8PtlFXvbRBtUFJ21EwCO-63" vertex="1">
                    <mxGeometry y="108" width="250" height="26" as="geometry"/>
                </mxCell>
                <mxCell id="8PtlFXvbRBtUFJ21EwCO-69" value="ObjectGenerator" style="swimlane;fontStyle=1;align=center;verticalAlign=top;childLayout=stackLayout;horizontal=1;startSize=26;horizontalStack=0;resizeParent=1;resizeParentMax=0;resizeLast=0;collapsible=1;marginBottom=0;" parent="1" vertex="1">
                    <mxGeometry x="2460" y="20" width="510" height="632" as="geometry"/>
                </mxCell>
                <mxCell id="8PtlFXvbRBtUFJ21EwCO-70" value="- lectureList: ArrayList&lt;LectureJSON&gt;" style="text;strokeColor=none;fillColor=none;align=left;verticalAlign=top;spacingLeft=4;spacingRight=4;overflow=hidden;rotatable=0;points=[[0,0.5],[1,0.5]];portConstraint=eastwest;fontStyle=0" parent="8PtlFXvbRBtUFJ21EwCO-69" vertex="1">
                    <mxGeometry y="26" width="510" height="26" as="geometry"/>
                </mxCell>
                <mxCell id="8PtlFXvbRBtUFJ21EwCO-71" value="&lt;span style=&quot;&quot;&gt;&amp;nbsp;- studentList: ArrayList&amp;lt;StudentJSON&amp;gt;&lt;/span&gt;" style="text;html=1;strokeColor=none;fillColor=none;align=left;verticalAlign=middle;whiteSpace=wrap;rounded=0;" parent="8PtlFXvbRBtUFJ21EwCO-69" vertex="1">
                    <mxGeometry y="52" width="510" height="30" as="geometry"/>
                </mxCell>
                <mxCell id="8PtlFXvbRBtUFJ21EwCO-72" value="&lt;span style=&quot;&quot;&gt;&amp;nbsp;- transcriptList: ArrayList&amp;lt;TranscriptJSON&amp;gt;&lt;/span&gt;" style="text;html=1;strokeColor=none;fillColor=none;align=left;verticalAlign=middle;whiteSpace=wrap;rounded=0;" parent="8PtlFXvbRBtUFJ21EwCO-69" vertex="1">
                    <mxGeometry y="82" width="510" height="30" as="geometry"/>
                </mxCell>
                <mxCell id="8PtlFXvbRBtUFJ21EwCO-73" value="&lt;span style=&quot;&quot;&gt;&amp;nbsp;- advisorList: ArrayList&amp;lt;AdvisorJSON&amp;gt;&lt;/span&gt;" style="text;html=1;strokeColor=none;fillColor=none;align=left;verticalAlign=middle;whiteSpace=wrap;rounded=0;" parent="8PtlFXvbRBtUFJ21EwCO-69" vertex="1">
                    <mxGeometry y="112" width="510" height="30" as="geometry"/>
                </mxCell>
                <mxCell id="8PtlFXvbRBtUFJ21EwCO-74" value="&amp;nbsp;- lectureObjectList: ArrayList&amp;lt;Lecture&amp;gt;" style="text;html=1;strokeColor=none;fillColor=none;align=left;verticalAlign=middle;whiteSpace=wrap;rounded=0;" parent="8PtlFXvbRBtUFJ21EwCO-69" vertex="1">
                    <mxGeometry y="142" width="510" height="30" as="geometry"/>
                </mxCell>
                <mxCell id="8PtlFXvbRBtUFJ21EwCO-75" value="&lt;span style=&quot;&quot;&gt;&amp;nbsp;- lstudentObjectList: ArrayList&amp;lt;Student&amp;gt;&lt;/span&gt;" style="text;html=1;strokeColor=none;fillColor=none;align=left;verticalAlign=middle;whiteSpace=wrap;rounded=0;" parent="8PtlFXvbRBtUFJ21EwCO-69" vertex="1">
                    <mxGeometry y="172" width="510" height="30" as="geometry"/>
                </mxCell>
                <mxCell id="8PtlFXvbRBtUFJ21EwCO-76" value="&lt;span style=&quot;&quot;&gt;&amp;nbsp;- transcriptObjectList: ArrayList&amp;lt;Transcript&amp;gt;&lt;/span&gt;" style="text;html=1;strokeColor=none;fillColor=none;align=left;verticalAlign=middle;whiteSpace=wrap;rounded=0;" parent="8PtlFXvbRBtUFJ21EwCO-69" vertex="1">
                    <mxGeometry y="202" width="510" height="30" as="geometry"/>
                </mxCell>
                <mxCell id="8PtlFXvbRBtUFJ21EwCO-77" value="&lt;span style=&quot;&quot;&gt;&amp;nbsp;- advisorObjectList: ArrayList&amp;lt;Advisor&amp;gt;&lt;/span&gt;" style="text;html=1;strokeColor=none;fillColor=none;align=left;verticalAlign=middle;whiteSpace=wrap;rounded=0;" parent="8PtlFXvbRBtUFJ21EwCO-69" vertex="1">
                    <mxGeometry y="232" width="510" height="30" as="geometry"/>
                </mxCell>
                <mxCell id="8PtlFXvbRBtUFJ21EwCO-81" value="" style="line;strokeWidth=1;fillColor=none;align=left;verticalAlign=middle;spacingTop=-1;spacingLeft=3;spacingRight=3;rotatable=0;labelPosition=right;points=[];portConstraint=eastwest;strokeColor=inherit;" parent="8PtlFXvbRBtUFJ21EwCO-69" vertex="1">
                    <mxGeometry y="262" width="510" height="8" as="geometry"/>
                </mxCell>
                <mxCell id="8PtlFXvbRBtUFJ21EwCO-82" value="+ &lt;&lt;constructor&gt;&gt;ObjectGenerator()" style="text;strokeColor=none;fillColor=none;align=left;verticalAlign=top;spacingLeft=4;spacingRight=4;overflow=hidden;rotatable=0;points=[[0,0.5],[1,0.5]];portConstraint=eastwest;fontStyle=1" parent="8PtlFXvbRBtUFJ21EwCO-69" vertex="1">
                    <mxGeometry y="270" width="510" height="26" as="geometry"/>
                </mxCell>
                <mxCell id="8PtlFXvbRBtUFJ21EwCO-83" value="&amp;nbsp;+generateObjects: void" style="text;html=1;strokeColor=none;fillColor=none;align=left;verticalAlign=middle;whiteSpace=wrap;rounded=0;" parent="8PtlFXvbRBtUFJ21EwCO-69" vertex="1">
                    <mxGeometry y="296" width="510" height="30" as="geometry"/>
                </mxCell>
                <mxCell id="8PtlFXvbRBtUFJ21EwCO-84" value="&amp;nbsp;+ pairObjects(): void" style="text;html=1;strokeColor=none;fillColor=none;align=left;verticalAlign=middle;whiteSpace=wrap;rounded=0;" parent="8PtlFXvbRBtUFJ21EwCO-69" vertex="1">
                    <mxGeometry y="326" width="510" height="30" as="geometry"/>
                </mxCell>
                <mxCell id="8PtlFXvbRBtUFJ21EwCO-85" value="&amp;nbsp;- generateLectures(): void" style="text;html=1;strokeColor=none;fillColor=none;align=left;verticalAlign=middle;whiteSpace=wrap;rounded=0;" parent="8PtlFXvbRBtUFJ21EwCO-69" vertex="1">
                    <mxGeometry y="356" width="510" height="30" as="geometry"/>
                </mxCell>
                <mxCell id="8PtlFXvbRBtUFJ21EwCO-86" value="&amp;nbsp;- generateStudents(): void" style="text;html=1;strokeColor=none;fillColor=none;align=left;verticalAlign=middle;whiteSpace=wrap;rounded=0;" parent="8PtlFXvbRBtUFJ21EwCO-69" vertex="1">
                    <mxGeometry y="386" width="510" height="30" as="geometry"/>
                </mxCell>
                <mxCell id="8PtlFXvbRBtUFJ21EwCO-87" value="&amp;nbsp;- generateAdvisors(): void" style="text;html=1;strokeColor=none;fillColor=none;align=left;verticalAlign=middle;whiteSpace=wrap;rounded=0;" parent="8PtlFXvbRBtUFJ21EwCO-69" vertex="1">
                    <mxGeometry y="416" width="510" height="34" as="geometry"/>
                </mxCell>
                <mxCell id="8PtlFXvbRBtUFJ21EwCO-89" value="- findLecture(String): Optional&lt;Lecture&gt;" style="text;strokeColor=none;fillColor=none;align=left;verticalAlign=top;spacingLeft=4;spacingRight=4;overflow=hidden;rotatable=0;points=[[0,0.5],[1,0.5]];portConstraint=eastwest;" parent="8PtlFXvbRBtUFJ21EwCO-69" vertex="1">
                    <mxGeometry y="450" width="510" height="26" as="geometry"/>
                </mxCell>
                <mxCell id="8PtlFXvbRBtUFJ21EwCO-90" value="- findStudent(String): Optional&lt;Student&gt;" style="text;strokeColor=none;fillColor=none;align=left;verticalAlign=top;spacingLeft=4;spacingRight=4;overflow=hidden;rotatable=0;points=[[0,0.5],[1,0.5]];portConstraint=eastwest;" parent="8PtlFXvbRBtUFJ21EwCO-69" vertex="1">
                    <mxGeometry y="476" width="510" height="26" as="geometry"/>
                </mxCell>
                <mxCell id="8PtlFXvbRBtUFJ21EwCO-91" value="- findAdvisor(String): Optional&lt;Advisor&gt;" style="text;strokeColor=none;fillColor=none;align=left;verticalAlign=top;spacingLeft=4;spacingRight=4;overflow=hidden;rotatable=0;points=[[0,0.5],[1,0.5]];portConstraint=eastwest;" parent="8PtlFXvbRBtUFJ21EwCO-69" vertex="1">
                    <mxGeometry y="502" width="510" height="26" as="geometry"/>
                </mxCell>
                <mxCell id="8PtlFXvbRBtUFJ21EwCO-92" value="-generateLectureSessio(ArrayList&lt;LectureSessionJSON&gt; : List&lt;LectureSessionJSON&gt;" style="text;strokeColor=none;fillColor=none;align=left;verticalAlign=top;spacingLeft=4;spacingRight=4;overflow=hidden;rotatable=0;points=[[0,0.5],[1,0.5]];portConstraint=eastwest;" parent="8PtlFXvbRBtUFJ21EwCO-69" vertex="1">
                    <mxGeometry y="528" width="510" height="26" as="geometry"/>
                </mxCell>
                <mxCell id="8PtlFXvbRBtUFJ21EwCO-93" value="- stringToLectureType(String): LectureType" style="text;strokeColor=none;fillColor=none;align=left;verticalAlign=top;spacingLeft=4;spacingRight=4;overflow=hidden;rotatable=0;points=[[0,0.5],[1,0.5]];portConstraint=eastwest;" parent="8PtlFXvbRBtUFJ21EwCO-69" vertex="1">
                    <mxGeometry y="554" width="510" height="26" as="geometry"/>
                </mxCell>
                <mxCell id="8PtlFXvbRBtUFJ21EwCO-94" value="- stringToSessionType(String): SessionTypete" style="text;strokeColor=none;fillColor=none;align=left;verticalAlign=top;spacingLeft=4;spacingRight=4;overflow=hidden;rotatable=0;points=[[0,0.5],[1,0.5]];portConstraint=eastwest;" parent="8PtlFXvbRBtUFJ21EwCO-69" vertex="1">
                    <mxGeometry y="580" width="510" height="26" as="geometry"/>
                </mxCell>
                <mxCell id="8PtlFXvbRBtUFJ21EwCO-95" value="- intToLectureHours(Integer [] [] ): LectureHour [] []" style="text;strokeColor=none;fillColor=none;align=left;verticalAlign=top;spacingLeft=4;spacingRight=4;overflow=hidden;rotatable=0;points=[[0,0.5],[1,0.5]];portConstraint=eastwest;" parent="8PtlFXvbRBtUFJ21EwCO-69" vertex="1">
                    <mxGeometry y="606" width="510" height="26" as="geometry"/>
                </mxCell>
                <mxCell id="XU7uOMUaKhlJ1TNt7Ozn-14" value="LectureSessionJSON" style="swimlane;fontStyle=1;align=center;verticalAlign=top;childLayout=stackLayout;horizontal=1;startSize=26;horizontalStack=0;resizeParent=1;resizeParentMax=0;resizeLast=0;collapsible=1;marginBottom=0;" parent="1" vertex="1">
                    <mxGeometry x="2470" y="700" width="440" height="242" as="geometry"/>
                </mxCell>
                <mxCell id="XU7uOMUaKhlJ1TNt7Ozn-15" value="- ID: String" style="text;strokeColor=none;fillColor=none;align=left;verticalAlign=top;spacingLeft=4;spacingRight=4;overflow=hidden;rotatable=0;points=[[0,0.5],[1,0.5]];portConstraint=eastwest;" parent="XU7uOMUaKhlJ1TNt7Ozn-14" vertex="1">
                    <mxGeometry y="26" width="440" height="26" as="geometry"/>
                </mxCell>
                <mxCell id="XU7uOMUaKhlJ1TNt7Ozn-18" value="- lectureID: String" style="text;strokeColor=none;fillColor=none;align=left;verticalAlign=top;spacingLeft=4;spacingRight=4;overflow=hidden;rotatable=0;points=[[0,0.5],[1,0.5]];portConstraint=eastwest;" parent="XU7uOMUaKhlJ1TNt7Ozn-14" vertex="1">
                    <mxGeometry y="52" width="440" height="26" as="geometry"/>
                </mxCell>
                <mxCell id="XU7uOMUaKhlJ1TNt7Ozn-19" value="- instructorID: String" style="text;strokeColor=none;fillColor=none;align=left;verticalAlign=top;spacingLeft=4;spacingRight=4;overflow=hidden;rotatable=0;points=[[0,0.5],[1,0.5]];portConstraint=eastwest;" parent="XU7uOMUaKhlJ1TNt7Ozn-14" vertex="1">
                    <mxGeometry y="78" width="440" height="26" as="geometry"/>
                </mxCell>
                <mxCell id="XU7uOMUaKhlJ1TNt7Ozn-20" value="- sessionType: String" style="text;strokeColor=none;fillColor=none;align=left;verticalAlign=top;spacingLeft=4;spacingRight=4;overflow=hidden;rotatable=0;points=[[0,0.5],[1,0.5]];portConstraint=eastwest;" parent="XU7uOMUaKhlJ1TNt7Ozn-14" vertex="1">
                    <mxGeometry y="104" width="440" height="26" as="geometry"/>
                </mxCell>
                <mxCell id="XU7uOMUaKhlJ1TNt7Ozn-21" value="- sessionsHours: Integer [] []" style="text;strokeColor=none;fillColor=none;align=left;verticalAlign=top;spacingLeft=4;spacingRight=4;overflow=hidden;rotatable=0;points=[[0,0.5],[1,0.5]];portConstraint=eastwest;" parent="XU7uOMUaKhlJ1TNt7Ozn-14" vertex="1">
                    <mxGeometry y="130" width="440" height="26" as="geometry"/>
                </mxCell>
                <mxCell id="XU7uOMUaKhlJ1TNt7Ozn-22" value="- listOfAssistantIDs: ArrayList &lt;String&gt;" style="text;strokeColor=none;fillColor=none;align=left;verticalAlign=top;spacingLeft=4;spacingRight=4;overflow=hidden;rotatable=0;points=[[0,0.5],[1,0.5]];portConstraint=eastwest;" parent="XU7uOMUaKhlJ1TNt7Ozn-14" vertex="1">
                    <mxGeometry y="156" width="440" height="26" as="geometry"/>
                </mxCell>
                <mxCell id="XU7uOMUaKhlJ1TNt7Ozn-23" value="- listOfStudentDs: ArrayList &lt;String&gt;" style="text;strokeColor=none;fillColor=none;align=left;verticalAlign=top;spacingLeft=4;spacingRight=4;overflow=hidden;rotatable=0;points=[[0,0.5],[1,0.5]];portConstraint=eastwest;" parent="XU7uOMUaKhlJ1TNt7Ozn-14" vertex="1">
                    <mxGeometry y="182" width="440" height="26" as="geometry"/>
                </mxCell>
                <mxCell id="XU7uOMUaKhlJ1TNt7Ozn-16" value="" style="line;strokeWidth=1;fillColor=none;align=left;verticalAlign=middle;spacingTop=-1;spacingLeft=3;spacingRight=3;rotatable=0;labelPosition=right;points=[];portConstraint=eastwest;strokeColor=inherit;" parent="XU7uOMUaKhlJ1TNt7Ozn-14" vertex="1">
                    <mxGeometry y="208" width="440" height="8" as="geometry"/>
                </mxCell>
                <mxCell id="XU7uOMUaKhlJ1TNt7Ozn-17" value="+ &lt;&lt;constructor&gt;&gt;LectureSessionJSON()" style="text;strokeColor=none;fillColor=none;align=left;verticalAlign=top;spacingLeft=4;spacingRight=4;overflow=hidden;rotatable=0;points=[[0,0.5],[1,0.5]];portConstraint=eastwest;" parent="XU7uOMUaKhlJ1TNt7Ozn-14" vertex="1">
                    <mxGeometry y="216" width="440" height="26" as="geometry"/>
                </mxCell>
                <mxCell id="XU7uOMUaKhlJ1TNt7Ozn-36" value="MetaData" style="swimlane;fontStyle=1;align=center;verticalAlign=top;childLayout=stackLayout;horizontal=1;startSize=26;horizontalStack=0;resizeParent=1;resizeParentMax=0;resizeLast=0;collapsible=1;marginBottom=0;" parent="1" vertex="1">
                    <mxGeometry x="2840" y="978" width="190" height="216" as="geometry"/>
                </mxCell>
                <mxCell id="XU7uOMUaKhlJ1TNt7Ozn-37" value="- studentsPath: String" style="text;strokeColor=none;fillColor=none;align=left;verticalAlign=top;spacingLeft=4;spacingRight=4;overflow=hidden;rotatable=0;points=[[0,0.5],[1,0.5]];portConstraint=eastwest;" parent="XU7uOMUaKhlJ1TNt7Ozn-36" vertex="1">
                    <mxGeometry y="26" width="190" height="26" as="geometry"/>
                </mxCell>
                <mxCell id="XU7uOMUaKhlJ1TNt7Ozn-40" value="- advisorPath: String" style="text;strokeColor=none;fillColor=none;align=left;verticalAlign=top;spacingLeft=4;spacingRight=4;overflow=hidden;rotatable=0;points=[[0,0.5],[1,0.5]];portConstraint=eastwest;" parent="XU7uOMUaKhlJ1TNt7Ozn-36" vertex="1">
                    <mxGeometry y="52" width="190" height="26" as="geometry"/>
                </mxCell>
                <mxCell id="XU7uOMUaKhlJ1TNt7Ozn-41" value="- transcriptsPath: String" style="text;strokeColor=none;fillColor=none;align=left;verticalAlign=top;spacingLeft=4;spacingRight=4;overflow=hidden;rotatable=0;points=[[0,0.5],[1,0.5]];portConstraint=eastwest;" parent="XU7uOMUaKhlJ1TNt7Ozn-36" vertex="1">
                    <mxGeometry y="78" width="190" height="26" as="geometry"/>
                </mxCell>
                <mxCell id="XU7uOMUaKhlJ1TNt7Ozn-42" value="- LecturesPath: String" style="text;strokeColor=none;fillColor=none;align=left;verticalAlign=top;spacingLeft=4;spacingRight=4;overflow=hidden;rotatable=0;points=[[0,0.5],[1,0.5]];portConstraint=eastwest;" parent="XU7uOMUaKhlJ1TNt7Ozn-36" vertex="1">
                    <mxGeometry y="104" width="190" height="26" as="geometry"/>
                </mxCell>
                <mxCell id="XU7uOMUaKhlJ1TNt7Ozn-43" value="- namePoolPath: String" style="text;strokeColor=none;fillColor=none;align=left;verticalAlign=top;spacingLeft=4;spacingRight=4;overflow=hidden;rotatable=0;points=[[0,0.5],[1,0.5]];portConstraint=eastwest;" parent="XU7uOMUaKhlJ1TNt7Ozn-36" vertex="1">
                    <mxGeometry y="130" width="190" height="26" as="geometry"/>
                </mxCell>
                <mxCell id="26" value="- logsPath: String" style="text;strokeColor=none;fillColor=none;align=left;verticalAlign=top;spacingLeft=4;spacingRight=4;overflow=hidden;rotatable=0;points=[[0,0.5],[1,0.5]];portConstraint=eastwest;" parent="XU7uOMUaKhlJ1TNt7Ozn-36" vertex="1">
                    <mxGeometry y="156" width="190" height="26" as="geometry"/>
                </mxCell>
                <mxCell id="XU7uOMUaKhlJ1TNt7Ozn-38" value="" style="line;strokeWidth=1;fillColor=none;align=left;verticalAlign=middle;spacingTop=-1;spacingLeft=3;spacingRight=3;rotatable=0;labelPosition=right;points=[];portConstraint=eastwest;strokeColor=inherit;" parent="XU7uOMUaKhlJ1TNt7Ozn-36" vertex="1">
                    <mxGeometry y="182" width="190" height="8" as="geometry"/>
                </mxCell>
                <mxCell id="XU7uOMUaKhlJ1TNt7Ozn-39" value="+ &lt;&lt;constructer&gt;&gt;MetaData" style="text;strokeColor=none;fillColor=none;align=left;verticalAlign=top;spacingLeft=4;spacingRight=4;overflow=hidden;rotatable=0;points=[[0,0.5],[1,0.5]];portConstraint=eastwest;" parent="XU7uOMUaKhlJ1TNt7Ozn-36" vertex="1">
                    <mxGeometry y="190" width="190" height="26" as="geometry"/>
                </mxCell>
                <mxCell id="XU7uOMUaKhlJ1TNt7Ozn-44" value="NamePool" style="swimlane;fontStyle=1;align=center;verticalAlign=top;childLayout=stackLayout;horizontal=1;startSize=26;horizontalStack=0;resizeParent=1;resizeParentMax=0;resizeLast=0;collapsible=1;marginBottom=0;" parent="1" vertex="1">
                    <mxGeometry x="3010" y="680" width="230" height="164" as="geometry"/>
                </mxCell>
                <mxCell id="XU7uOMUaKhlJ1TNt7Ozn-45" value="names: ArrayList&lt;String&gt;" style="text;strokeColor=none;fillColor=none;align=left;verticalAlign=top;spacingLeft=4;spacingRight=4;overflow=hidden;rotatable=0;points=[[0,0.5],[1,0.5]];portConstraint=eastwest;" parent="XU7uOMUaKhlJ1TNt7Ozn-44" vertex="1">
                    <mxGeometry y="26" width="230" height="26" as="geometry"/>
                </mxCell>
                <mxCell id="XU7uOMUaKhlJ1TNt7Ozn-48" value="- lastNames: ArrayList&lt;String&gt;" style="text;strokeColor=none;fillColor=none;align=left;verticalAlign=top;spacingLeft=4;spacingRight=4;overflow=hidden;rotatable=0;points=[[0,0.5],[1,0.5]];portConstraint=eastwest;" parent="XU7uOMUaKhlJ1TNt7Ozn-44" vertex="1">
                    <mxGeometry y="52" width="230" height="26" as="geometry"/>
                </mxCell>
                <mxCell id="XU7uOMUaKhlJ1TNt7Ozn-46" value="" style="line;strokeWidth=1;fillColor=none;align=left;verticalAlign=middle;spacingTop=-1;spacingLeft=3;spacingRight=3;rotatable=0;labelPosition=right;points=[];portConstraint=eastwest;strokeColor=inherit;" parent="XU7uOMUaKhlJ1TNt7Ozn-44" vertex="1">
                    <mxGeometry y="78" width="230" height="8" as="geometry"/>
                </mxCell>
                <mxCell id="XU7uOMUaKhlJ1TNt7Ozn-47" value="+ &lt;&lt;constructer&gt;&gt;NamePool" style="text;strokeColor=none;fillColor=none;align=left;verticalAlign=top;spacingLeft=4;spacingRight=4;overflow=hidden;rotatable=0;points=[[0,0.5],[1,0.5]];portConstraint=eastwest;" parent="XU7uOMUaKhlJ1TNt7Ozn-44" vertex="1">
                    <mxGeometry y="86" width="230" height="26" as="geometry"/>
                </mxCell>
                <mxCell id="27" value="+ getRandomName(): String" style="text;strokeColor=none;fillColor=none;align=left;verticalAlign=top;spacingLeft=4;spacingRight=4;overflow=hidden;rotatable=0;points=[[0,0.5],[1,0.5]];portConstraint=eastwest;" parent="XU7uOMUaKhlJ1TNt7Ozn-44" vertex="1">
                    <mxGeometry y="112" width="230" height="26" as="geometry"/>
                </mxCell>
                <mxCell id="28" value="+ getRandomLastName(): String" style="text;strokeColor=none;fillColor=none;align=left;verticalAlign=top;spacingLeft=4;spacingRight=4;overflow=hidden;rotatable=0;points=[[0,0.5],[1,0.5]];portConstraint=eastwest;" parent="XU7uOMUaKhlJ1TNt7Ozn-44" vertex="1">
                    <mxGeometry y="138" width="230" height="26" as="geometry"/>
                </mxCell>
                <mxCell id="XU7uOMUaKhlJ1TNt7Ozn-57" value="SheduleJSON" style="swimlane;fontStyle=1;align=center;verticalAlign=top;childLayout=stackLayout;horizontal=1;startSize=26;horizontalStack=0;resizeParent=1;resizeParentMax=0;resizeLast=0;collapsible=1;marginBottom=0;" parent="1" vertex="1">
                    <mxGeometry x="3050" y="1000" width="230" height="164" as="geometry"/>
                </mxCell>
                <mxCell id="30" value="- sessions: HashMap&lt;String, String&gt;" style="text;strokeColor=none;fillColor=none;align=left;verticalAlign=top;spacingLeft=4;spacingRight=4;overflow=hidden;rotatable=0;points=[[0,0.5],[1,0.5]];portConstraint=eastwest;" parent="XU7uOMUaKhlJ1TNt7Ozn-57" vertex="1">
                    <mxGeometry y="26" width="230" height="26" as="geometry"/>
                </mxCell>
                <mxCell id="29" value="- ID: String" style="text;strokeColor=none;fillColor=none;align=left;verticalAlign=top;spacingLeft=4;spacingRight=4;overflow=hidden;rotatable=0;points=[[0,0.5],[1,0.5]];portConstraint=eastwest;" parent="XU7uOMUaKhlJ1TNt7Ozn-57" vertex="1">
                    <mxGeometry y="52" width="230" height="26" as="geometry"/>
                </mxCell>
                <mxCell id="31" value="- term: String" style="text;strokeColor=none;fillColor=none;align=left;verticalAlign=top;spacingLeft=4;spacingRight=4;overflow=hidden;rotatable=0;points=[[0,0.5],[1,0.5]];portConstraint=eastwest;" parent="XU7uOMUaKhlJ1TNt7Ozn-57" vertex="1">
                    <mxGeometry y="78" width="230" height="26" as="geometry"/>
                </mxCell>
                <mxCell id="XU7uOMUaKhlJ1TNt7Ozn-58" value="- termYear: String" style="text;strokeColor=none;fillColor=none;align=left;verticalAlign=top;spacingLeft=4;spacingRight=4;overflow=hidden;rotatable=0;points=[[0,0.5],[1,0.5]];portConstraint=eastwest;" parent="XU7uOMUaKhlJ1TNt7Ozn-57" vertex="1">
                    <mxGeometry y="104" width="230" height="26" as="geometry"/>
                </mxCell>
                <mxCell id="XU7uOMUaKhlJ1TNt7Ozn-60" value="" style="line;strokeWidth=1;fillColor=none;align=left;verticalAlign=middle;spacingTop=-1;spacingLeft=3;spacingRight=3;rotatable=0;labelPosition=right;points=[];portConstraint=eastwest;strokeColor=inherit;" parent="XU7uOMUaKhlJ1TNt7Ozn-57" vertex="1">
                    <mxGeometry y="130" width="230" height="8" as="geometry"/>
                </mxCell>
                <mxCell id="XU7uOMUaKhlJ1TNt7Ozn-61" value="+ &lt;&lt;constructer&gt;&gt;SheduleJSON" style="text;strokeColor=none;fillColor=none;align=left;verticalAlign=top;spacingLeft=4;spacingRight=4;overflow=hidden;rotatable=0;points=[[0,0.5],[1,0.5]];portConstraint=eastwest;" parent="XU7uOMUaKhlJ1TNt7Ozn-57" vertex="1">
                    <mxGeometry y="138" width="230" height="26" as="geometry"/>
                </mxCell>
                <mxCell id="XU7uOMUaKhlJ1TNt7Ozn-62" value="SemesterJSON" style="swimlane;fontStyle=1;align=center;verticalAlign=top;childLayout=stackLayout;horizontal=1;startSize=26;horizontalStack=0;resizeParent=1;resizeParentMax=0;resizeLast=0;collapsible=1;marginBottom=0;" parent="1" vertex="1">
                    <mxGeometry x="2470" y="978" width="340" height="86" as="geometry"/>
                </mxCell>
                <mxCell id="XU7uOMUaKhlJ1TNt7Ozn-63" value="- listOfLecturesTaken: HashMap&lt;String, String&gt;" style="text;strokeColor=none;fillColor=none;align=left;verticalAlign=top;spacingLeft=4;spacingRight=4;overflow=hidden;rotatable=0;points=[[0,0.5],[1,0.5]];portConstraint=eastwest;" parent="XU7uOMUaKhlJ1TNt7Ozn-62" vertex="1">
                    <mxGeometry y="26" width="340" height="26" as="geometry"/>
                </mxCell>
                <mxCell id="XU7uOMUaKhlJ1TNt7Ozn-64" value="" style="line;strokeWidth=1;fillColor=none;align=left;verticalAlign=middle;spacingTop=-1;spacingLeft=3;spacingRight=3;rotatable=0;labelPosition=right;points=[];portConstraint=eastwest;strokeColor=inherit;" parent="XU7uOMUaKhlJ1TNt7Ozn-62" vertex="1">
                    <mxGeometry y="52" width="340" height="8" as="geometry"/>
                </mxCell>
                <mxCell id="XU7uOMUaKhlJ1TNt7Ozn-65" value="+ &lt;&lt;constructer&gt;&gt;SemesterJSON()" style="text;strokeColor=none;fillColor=none;align=left;verticalAlign=top;spacingLeft=4;spacingRight=4;overflow=hidden;rotatable=0;points=[[0,0.5],[1,0.5]];portConstraint=eastwest;" parent="XU7uOMUaKhlJ1TNt7Ozn-62" vertex="1">
                    <mxGeometry y="60" width="340" height="26" as="geometry"/>
                </mxCell>
                <mxCell id="XU7uOMUaKhlJ1TNt7Ozn-70" value="" style="endArrow=none;html=1;rounded=0;" parent="1" edge="1">
                    <mxGeometry width="50" height="50" relative="1" as="geometry">
                        <mxPoint x="2400" y="2330" as="sourcePoint"/>
                        <mxPoint x="2400" y="111" as="targetPoint"/>
                        <Array as="points">
                            <mxPoint x="2400" y="640"/>
                            <mxPoint x="2400" y="280"/>
                        </Array>
                    </mxGeometry>
                </mxCell>
                <mxCell id="XU7uOMUaKhlJ1TNt7Ozn-83" value="TranscriptJSON" style="swimlane;fontStyle=1;align=center;verticalAlign=top;childLayout=stackLayout;horizontal=1;startSize=26;horizontalStack=0;resizeParent=1;resizeParentMax=0;resizeLast=0;collapsible=1;marginBottom=0;" parent="1" vertex="1">
                    <mxGeometry x="2710" y="1220" width="280" height="112" as="geometry"/>
                </mxCell>
                <mxCell id="XU7uOMUaKhlJ1TNt7Ozn-84" value="- studentID: String" style="text;strokeColor=none;fillColor=none;align=left;verticalAlign=top;spacingLeft=4;spacingRight=4;overflow=hidden;rotatable=0;points=[[0,0.5],[1,0.5]];portConstraint=eastwest;" parent="XU7uOMUaKhlJ1TNt7Ozn-83" vertex="1">
                    <mxGeometry y="26" width="280" height="26" as="geometry"/>
                </mxCell>
                <mxCell id="XU7uOMUaKhlJ1TNt7Ozn-87" value="- listOfSemesters: ArrayList&lt;SemesterJSON&gt;" style="text;strokeColor=none;fillColor=none;align=left;verticalAlign=top;spacingLeft=4;spacingRight=4;overflow=hidden;rotatable=0;points=[[0,0.5],[1,0.5]];portConstraint=eastwest;" parent="XU7uOMUaKhlJ1TNt7Ozn-83" vertex="1">
                    <mxGeometry y="52" width="280" height="26" as="geometry"/>
                </mxCell>
                <mxCell id="XU7uOMUaKhlJ1TNt7Ozn-85" value="" style="line;strokeWidth=1;fillColor=none;align=left;verticalAlign=middle;spacingTop=-1;spacingLeft=3;spacingRight=3;rotatable=0;labelPosition=right;points=[];portConstraint=eastwest;strokeColor=inherit;" parent="XU7uOMUaKhlJ1TNt7Ozn-83" vertex="1">
                    <mxGeometry y="78" width="280" height="8" as="geometry"/>
                </mxCell>
                <mxCell id="XU7uOMUaKhlJ1TNt7Ozn-86" value="+ &lt;&lt;constructer&gt;&gt;TranscriptJSON" style="text;strokeColor=none;fillColor=none;align=left;verticalAlign=top;spacingLeft=4;spacingRight=4;overflow=hidden;rotatable=0;points=[[0,0.5],[1,0.5]];portConstraint=eastwest;" parent="XU7uOMUaKhlJ1TNt7Ozn-83" vertex="1">
                    <mxGeometry y="86" width="280" height="26" as="geometry"/>
                </mxCell>
                <mxCell id="CaGFxNKdIuVeOpa1Jxo8-9" value="Schedule" style="swimlane;fontStyle=1;align=center;verticalAlign=top;childLayout=stackLayout;horizontal=1;startSize=26;horizontalStack=0;resizeParent=1;resizeParentMax=0;resizeLast=0;collapsible=1;marginBottom=0;" parent="1" vertex="1">
                    <mxGeometry x="2500.5" y="1550" width="379.5" height="138" as="geometry"/>
                </mxCell>
                <mxCell id="CaGFxNKdIuVeOpa1Jxo8-10" value="- person: Person" style="text;strokeColor=none;fillColor=none;align=left;verticalAlign=top;spacingLeft=4;spacingRight=4;overflow=hidden;rotatable=0;points=[[0,0.5],[1,0.5]];portConstraint=eastwest;" parent="CaGFxNKdIuVeOpa1Jxo8-9" vertex="1">
                    <mxGeometry y="26" width="379.5" height="26" as="geometry"/>
                </mxCell>
                <mxCell id="CaGFxNKdIuVeOpa1Jxo8-13" value="- listOfLectureSessions: ArrayList&lt;LectureSession&gt;" style="text;strokeColor=none;fillColor=none;align=left;verticalAlign=top;spacingLeft=4;spacingRight=4;overflow=hidden;rotatable=0;points=[[0,0.5],[1,0.5]];portConstraint=eastwest;" parent="CaGFxNKdIuVeOpa1Jxo8-9" vertex="1">
                    <mxGeometry y="52" width="379.5" height="26" as="geometry"/>
                </mxCell>
                <mxCell id="CaGFxNKdIuVeOpa1Jxo8-11" value="" style="line;strokeWidth=1;fillColor=none;align=left;verticalAlign=middle;spacingTop=-1;spacingLeft=3;spacingRight=3;rotatable=0;labelPosition=right;points=[];portConstraint=eastwest;strokeColor=inherit;" parent="CaGFxNKdIuVeOpa1Jxo8-9" vertex="1">
                    <mxGeometry y="78" width="379.5" height="8" as="geometry"/>
                </mxCell>
                <mxCell id="CaGFxNKdIuVeOpa1Jxo8-12" value="+  &lt;&lt;constructer&gt;&gt;Shedule" style="text;strokeColor=none;fillColor=none;align=left;verticalAlign=top;spacingLeft=4;spacingRight=4;overflow=hidden;rotatable=0;points=[[0,0.5],[1,0.5]];portConstraint=eastwest;" parent="CaGFxNKdIuVeOpa1Jxo8-9" vertex="1">
                    <mxGeometry y="86" width="379.5" height="26" as="geometry"/>
                </mxCell>
                <mxCell id="CaGFxNKdIuVeOpa1Jxo8-14" value="+ showSchedule(): void" style="text;strokeColor=none;fillColor=none;align=left;verticalAlign=top;spacingLeft=4;spacingRight=4;overflow=hidden;rotatable=0;points=[[0,0.5],[1,0.5]];portConstraint=eastwest;" parent="CaGFxNKdIuVeOpa1Jxo8-9" vertex="1">
                    <mxGeometry y="112" width="379.5" height="26" as="geometry"/>
                </mxCell>
                <mxCell id="CaGFxNKdIuVeOpa1Jxo8-19" value="InstructorRegistrationSystem" style="swimlane;fontStyle=1;align=center;verticalAlign=top;childLayout=stackLayout;horizontal=1;startSize=26;horizontalStack=0;resizeParent=1;resizeParentMax=0;resizeLast=0;collapsible=1;marginBottom=0;" parent="1" vertex="1">
                    <mxGeometry x="1650" y="36" width="320" height="216" as="geometry"/>
                </mxCell>
                <mxCell id="CaGFxNKdIuVeOpa1Jxo8-20" value="- scanner: Scanner" style="text;strokeColor=none;fillColor=none;align=left;verticalAlign=top;spacingLeft=4;spacingRight=4;overflow=hidden;rotatable=0;points=[[0,0.5],[1,0.5]];portConstraint=eastwest;" parent="CaGFxNKdIuVeOpa1Jxo8-19" vertex="1">
                    <mxGeometry y="26" width="320" height="26" as="geometry"/>
                </mxCell>
                <mxCell id="CaGFxNKdIuVeOpa1Jxo8-23" value="- registrationSystem: RegistrationSystem" style="text;strokeColor=none;fillColor=none;align=left;verticalAlign=top;spacingLeft=4;spacingRight=4;overflow=hidden;rotatable=0;points=[[0,0.5],[1,0.5]];portConstraint=eastwest;" parent="CaGFxNKdIuVeOpa1Jxo8-19" vertex="1">
                    <mxGeometry y="52" width="320" height="26" as="geometry"/>
                </mxCell>
                <mxCell id="CaGFxNKdIuVeOpa1Jxo8-24" value="- objects1: ObjectCreator" style="text;strokeColor=none;fillColor=none;align=left;verticalAlign=top;spacingLeft=4;spacingRight=4;overflow=hidden;rotatable=0;points=[[0,0.5],[1,0.5]];portConstraint=eastwest;" parent="CaGFxNKdIuVeOpa1Jxo8-19" vertex="1">
                    <mxGeometry y="78" width="320" height="26" as="geometry"/>
                </mxCell>
                <mxCell id="CaGFxNKdIuVeOpa1Jxo8-21" value="" style="line;strokeWidth=1;fillColor=none;align=left;verticalAlign=middle;spacingTop=-1;spacingLeft=3;spacingRight=3;rotatable=0;labelPosition=right;points=[];portConstraint=eastwest;strokeColor=inherit;" parent="CaGFxNKdIuVeOpa1Jxo8-19" vertex="1">
                    <mxGeometry y="104" width="320" height="8" as="geometry"/>
                </mxCell>
                <mxCell id="CaGFxNKdIuVeOpa1Jxo8-22" value="- &lt;&lt;constructor&gt;&gt;InstructorRegistrationSystem()" style="text;strokeColor=none;fillColor=none;align=left;verticalAlign=top;spacingLeft=4;spacingRight=4;overflow=hidden;rotatable=0;points=[[0,0.5],[1,0.5]];portConstraint=eastwest;" parent="CaGFxNKdIuVeOpa1Jxo8-19" vertex="1">
                    <mxGeometry y="112" width="320" height="26" as="geometry"/>
                </mxCell>
                <mxCell id="CaGFxNKdIuVeOpa1Jxo8-25" value="- instructorLogin(): void" style="text;strokeColor=none;fillColor=none;align=left;verticalAlign=top;spacingLeft=4;spacingRight=4;overflow=hidden;rotatable=0;points=[[0,0.5],[1,0.5]];portConstraint=eastwest;" parent="CaGFxNKdIuVeOpa1Jxo8-19" vertex="1">
                    <mxGeometry y="138" width="320" height="26" as="geometry"/>
                </mxCell>
                <mxCell id="CaGFxNKdIuVeOpa1Jxo8-26" value="- instructorMenu(Instructor): void" style="text;strokeColor=none;fillColor=none;align=left;verticalAlign=top;spacingLeft=4;spacingRight=4;overflow=hidden;rotatable=0;points=[[0,0.5],[1,0.5]];portConstraint=eastwest;" parent="CaGFxNKdIuVeOpa1Jxo8-19" vertex="1">
                    <mxGeometry y="164" width="320" height="26" as="geometry"/>
                </mxCell>
                <mxCell id="CaGFxNKdIuVeOpa1Jxo8-29" value="- signOut(): void" style="text;strokeColor=none;fillColor=none;align=left;verticalAlign=top;spacingLeft=4;spacingRight=4;overflow=hidden;rotatable=0;points=[[0,0.5],[1,0.5]];portConstraint=eastwest;" parent="CaGFxNKdIuVeOpa1Jxo8-19" vertex="1">
                    <mxGeometry y="190" width="320" height="26" as="geometry"/>
                </mxCell>
                <mxCell id="CaGFxNKdIuVeOpa1Jxo8-30" value="RegistrationSystem" style="swimlane;fontStyle=1;align=center;verticalAlign=top;childLayout=stackLayout;horizontal=1;startSize=26;horizontalStack=0;resizeParent=1;resizeParentMax=0;resizeLast=0;collapsible=1;marginBottom=0;" parent="1" vertex="1">
                    <mxGeometry x="1960" y="1140" width="340" height="86" as="geometry"/>
                </mxCell>
                <mxCell id="CaGFxNKdIuVeOpa1Jxo8-31" value="??????????" style="text;strokeColor=none;fillColor=none;align=left;verticalAlign=top;spacingLeft=4;spacingRight=4;overflow=hidden;rotatable=0;points=[[0,0.5],[1,0.5]];portConstraint=eastwest;" parent="CaGFxNKdIuVeOpa1Jxo8-30" vertex="1">
                    <mxGeometry y="26" width="340" height="26" as="geometry"/>
                </mxCell>
                <mxCell id="CaGFxNKdIuVeOpa1Jxo8-32" value="" style="line;strokeWidth=1;fillColor=none;align=left;verticalAlign=middle;spacingTop=-1;spacingLeft=3;spacingRight=3;rotatable=0;labelPosition=right;points=[];portConstraint=eastwest;strokeColor=inherit;" parent="CaGFxNKdIuVeOpa1Jxo8-30" vertex="1">
                    <mxGeometry y="52" width="340" height="8" as="geometry"/>
                </mxCell>
                <mxCell id="CaGFxNKdIuVeOpa1Jxo8-33" value="+ method(type): type" style="text;strokeColor=none;fillColor=none;align=left;verticalAlign=top;spacingLeft=4;spacingRight=4;overflow=hidden;rotatable=0;points=[[0,0.5],[1,0.5]];portConstraint=eastwest;" parent="CaGFxNKdIuVeOpa1Jxo8-30" vertex="1">
                    <mxGeometry y="60" width="340" height="26" as="geometry"/>
                </mxCell>
                <mxCell id="2" value="Logger" style="swimlane;fontStyle=1;align=center;verticalAlign=top;childLayout=stackLayout;horizontal=1;startSize=26;horizontalStack=0;resizeParent=1;resizeParentMax=0;resizeLast=0;collapsible=1;marginBottom=0;" parent="1" vertex="1">
                    <mxGeometry x="1770" y="1370" width="370" height="294" as="geometry"/>
                </mxCell>
                <mxCell id="3" value="- loggers: Map&lt;String, Logger&gt;" style="text;strokeColor=none;fillColor=none;align=left;verticalAlign=top;spacingLeft=4;spacingRight=4;overflow=hidden;rotatable=0;points=[[0,0.5],[1,0.5]];portConstraint=eastwest;fontStyle=4" parent="2" vertex="1">
                    <mxGeometry y="26" width="370" height="26" as="geometry"/>
                </mxCell>
                <mxCell id="4" value="- randomOutputFile: RandomAccessFile" style="text;strokeColor=none;fillColor=none;align=left;verticalAlign=top;spacingLeft=4;spacingRight=4;overflow=hidden;rotatable=0;points=[[0,0.5],[1,0.5]];portConstraint=eastwest;" parent="2" vertex="1">
                    <mxGeometry y="52" width="370" height="26" as="geometry"/>
                </mxCell>
                <mxCell id="5" value="- outputFile: outputFile" style="text;strokeColor=none;fillColor=none;align=left;verticalAlign=top;spacingLeft=4;spacingRight=4;overflow=hidden;rotatable=0;points=[[0,0.5],[1,0.5]];portConstraint=eastwest;" parent="2" vertex="1">
                    <mxGeometry y="78" width="370" height="26" as="geometry"/>
                </mxCell>
                <mxCell id="6" value="" style="line;strokeWidth=1;fillColor=none;align=left;verticalAlign=middle;spacingTop=-1;spacingLeft=3;spacingRight=3;rotatable=0;labelPosition=right;points=[];portConstraint=eastwest;strokeColor=inherit;" parent="2" vertex="1">
                    <mxGeometry y="104" width="370" height="8" as="geometry"/>
                </mxCell>
                <mxCell id="7" value="- &lt;&lt;constructor&gt;&gt;Logger(String):" style="text;strokeColor=none;fillColor=none;align=left;verticalAlign=top;spacingLeft=4;spacingRight=4;overflow=hidden;rotatable=0;points=[[0,0.5],[1,0.5]];portConstraint=eastwest;" parent="2" vertex="1">
                    <mxGeometry y="112" width="370" height="26" as="geometry"/>
                </mxCell>
                <mxCell id="8" value="+ getLogger(String): Logger" style="text;strokeColor=none;fillColor=none;align=left;verticalAlign=top;spacingLeft=4;spacingRight=4;overflow=hidden;rotatable=0;points=[[0,0.5],[1,0.5]];portConstraint=eastwest;fontStyle=4" parent="2" vertex="1">
                    <mxGeometry y="138" width="370" height="26" as="geometry"/>
                </mxCell>
                <mxCell id="9" value="+ error(String): void" style="text;strokeColor=none;fillColor=none;align=left;verticalAlign=top;spacingLeft=4;spacingRight=4;overflow=hidden;rotatable=0;points=[[0,0.5],[1,0.5]];portConstraint=eastwest;" parent="2" vertex="1">
                    <mxGeometry y="164" width="370" height="26" as="geometry"/>
                </mxCell>
                <mxCell id="10" value="+ error(String, Object...): void" style="text;strokeColor=none;fillColor=none;align=left;verticalAlign=top;spacingLeft=4;spacingRight=4;overflow=hidden;rotatable=0;points=[[0,0.5],[1,0.5]];portConstraint=eastwest;" parent="2" vertex="1">
                    <mxGeometry y="190" width="370" height="26" as="geometry"/>
                </mxCell>
                <mxCell id="11" value="+ info(String): void" style="text;strokeColor=none;fillColor=none;align=left;verticalAlign=top;spacingLeft=4;spacingRight=4;overflow=hidden;rotatable=0;points=[[0,0.5],[1,0.5]];portConstraint=eastwest;" parent="2" vertex="1">
                    <mxGeometry y="216" width="370" height="26" as="geometry"/>
                </mxCell>
                <mxCell id="12" value="+ info(String, Object...): void" style="text;strokeColor=none;fillColor=none;align=left;verticalAlign=top;spacingLeft=4;spacingRight=4;overflow=hidden;rotatable=0;points=[[0,0.5],[1,0.5]];portConstraint=eastwest;" parent="2" vertex="1">
                    <mxGeometry y="242" width="370" height="26" as="geometry"/>
                </mxCell>
                <mxCell id="13" value="- log(String, String): void" style="text;strokeColor=none;fillColor=none;align=left;verticalAlign=top;spacingLeft=4;spacingRight=4;overflow=hidden;rotatable=0;points=[[0,0.5],[1,0.5]];portConstraint=eastwest;" parent="2" vertex="1">
                    <mxGeometry y="268" width="370" height="26" as="geometry"/>
                </mxCell>
                <mxCell id="14" value="LectureJSON" style="swimlane;fontStyle=1;align=center;verticalAlign=top;childLayout=stackLayout;horizontal=1;startSize=26;horizontalStack=0;resizeParent=1;resizeParentMax=0;resizeLast=0;collapsible=1;marginBottom=0;" parent="1" vertex="1">
                    <mxGeometry x="2470.25" y="1750" width="440" height="294" as="geometry"/>
                </mxCell>
                <mxCell id="15" value="- ID: String" style="text;strokeColor=none;fillColor=none;align=left;verticalAlign=top;spacingLeft=4;spacingRight=4;overflow=hidden;rotatable=0;points=[[0,0.5],[1,0.5]];portConstraint=eastwest;" parent="14" vertex="1">
                    <mxGeometry y="26" width="440" height="26" as="geometry"/>
                </mxCell>
                <mxCell id="16" value="- Name: String" style="text;strokeColor=none;fillColor=none;align=left;verticalAlign=top;spacingLeft=4;spacingRight=4;overflow=hidden;rotatable=0;points=[[0,0.5],[1,0.5]];portConstraint=eastwest;" parent="14" vertex="1">
                    <mxGeometry y="52" width="440" height="26" as="geometry"/>
                </mxCell>
                <mxCell id="17" value="- prerequisiteID: String" style="text;strokeColor=none;fillColor=none;align=left;verticalAlign=top;spacingLeft=4;spacingRight=4;overflow=hidden;rotatable=0;points=[[0,0.5],[1,0.5]];portConstraint=eastwest;" parent="14" vertex="1">
                    <mxGeometry y="78" width="440" height="26" as="geometry"/>
                </mxCell>
                <mxCell id="18" value="- lectureType: String" style="text;strokeColor=none;fillColor=none;align=left;verticalAlign=top;spacingLeft=4;spacingRight=4;overflow=hidden;rotatable=0;points=[[0,0.5],[1,0.5]];portConstraint=eastwest;" parent="14" vertex="1">
                    <mxGeometry y="104" width="440" height="26" as="geometry"/>
                </mxCell>
                <mxCell id="19" value="- quota: Integer " style="text;strokeColor=none;fillColor=none;align=left;verticalAlign=top;spacingLeft=4;spacingRight=4;overflow=hidden;rotatable=0;points=[[0,0.5],[1,0.5]];portConstraint=eastwest;" parent="14" vertex="1">
                    <mxGeometry y="130" width="440" height="26" as="geometry"/>
                </mxCell>
                <mxCell id="20" value="- credit: Integer" style="text;strokeColor=none;fillColor=none;align=left;verticalAlign=top;spacingLeft=4;spacingRight=4;overflow=hidden;rotatable=0;points=[[0,0.5],[1,0.5]];portConstraint=eastwest;" parent="14" vertex="1">
                    <mxGeometry y="156" width="440" height="26" as="geometry"/>
                </mxCell>
                <mxCell id="25" value="- term: String" style="text;strokeColor=none;fillColor=none;align=left;verticalAlign=top;spacingLeft=4;spacingRight=4;overflow=hidden;rotatable=0;points=[[0,0.5],[1,0.5]];portConstraint=eastwest;" parent="14" vertex="1">
                    <mxGeometry y="182" width="440" height="26" as="geometry"/>
                </mxCell>
                <mxCell id="21" value="- termYear: String" style="text;strokeColor=none;fillColor=none;align=left;verticalAlign=top;spacingLeft=4;spacingRight=4;overflow=hidden;rotatable=0;points=[[0,0.5],[1,0.5]];portConstraint=eastwest;" parent="14" vertex="1">
                    <mxGeometry y="208" width="440" height="26" as="geometry"/>
                </mxCell>
                <mxCell id="24" value="- lectureSessions: ArrayList&lt;LectureSessionsJSON&gt;" style="text;strokeColor=none;fillColor=none;align=left;verticalAlign=top;spacingLeft=4;spacingRight=4;overflow=hidden;rotatable=0;points=[[0,0.5],[1,0.5]];portConstraint=eastwest;" parent="14" vertex="1">
                    <mxGeometry y="234" width="440" height="26" as="geometry"/>
                </mxCell>
                <mxCell id="22" value="" style="line;strokeWidth=1;fillColor=none;align=left;verticalAlign=middle;spacingTop=-1;spacingLeft=3;spacingRight=3;rotatable=0;labelPosition=right;points=[];portConstraint=eastwest;strokeColor=inherit;" parent="14" vertex="1">
                    <mxGeometry y="260" width="440" height="8" as="geometry"/>
                </mxCell>
                <mxCell id="23" value="+ &lt;&lt;constructor&gt;&gt;LectureJSON()" style="text;strokeColor=none;fillColor=none;align=left;verticalAlign=top;spacingLeft=4;spacingRight=4;overflow=hidden;rotatable=0;points=[[0,0.5],[1,0.5]];portConstraint=eastwest;" parent="14" vertex="1">
                    <mxGeometry y="268" width="440" height="26" as="geometry"/>
                </mxCell>
                <mxCell id="39" value="InstructorJSON" style="swimlane;fontStyle=1;align=center;verticalAlign=top;childLayout=stackLayout;horizontal=1;startSize=26;horizontalStack=0;resizeParent=1;resizeParentMax=0;resizeLast=0;collapsible=1;marginBottom=0;" parent="1" vertex="1">
                    <mxGeometry x="760" y="1379" width="270" height="164" as="geometry"/>
                </mxCell>
                <mxCell id="40" value="- schedule: ScheduleJSON" style="text;strokeColor=none;fillColor=none;align=left;verticalAlign=top;spacingLeft=4;spacingRight=4;overflow=hidden;rotatable=0;points=[[0,0.5],[1,0.5]];portConstraint=eastwest;" parent="39" vertex="1">
                    <mxGeometry y="26" width="270" height="26" as="geometry"/>
                </mxCell>
                <mxCell id="41" value="- instroctorType: String" style="text;strokeColor=none;fillColor=none;align=left;verticalAlign=top;spacingLeft=4;spacingRight=4;overflow=hidden;rotatable=0;points=[[0,0.5],[1,0.5]];portConstraint=eastwest;" parent="39" vertex="1">
                    <mxGeometry y="52" width="270" height="26" as="geometry"/>
                </mxCell>
                <mxCell id="42" value="- instroctorID: String" style="text;strokeColor=none;fillColor=none;align=left;verticalAlign=top;spacingLeft=4;spacingRight=4;overflow=hidden;rotatable=0;points=[[0,0.5],[1,0.5]];portConstraint=eastwest;" parent="39" vertex="1">
                    <mxGeometry y="78" width="270" height="26" as="geometry"/>
                </mxCell>
                <mxCell id="43" value="- dateOfEntry: String" style="text;strokeColor=none;fillColor=none;align=left;verticalAlign=top;spacingLeft=4;spacingRight=4;overflow=hidden;rotatable=0;points=[[0,0.5],[1,0.5]];portConstraint=eastwest;" parent="39" vertex="1">
                    <mxGeometry y="104" width="270" height="26" as="geometry"/>
                </mxCell>
                <mxCell id="44" value="" style="line;strokeWidth=1;fillColor=none;align=left;verticalAlign=middle;spacingTop=-1;spacingLeft=3;spacingRight=3;rotatable=0;labelPosition=right;points=[];portConstraint=eastwest;strokeColor=inherit;" parent="39" vertex="1">
                    <mxGeometry y="130" width="270" height="8" as="geometry"/>
                </mxCell>
                <mxCell id="45" value="+ &lt;&lt;constructor&gt;&gt;InstructorJSON(String , String)" style="text;strokeColor=none;fillColor=none;align=left;verticalAlign=top;spacingLeft=4;spacingRight=4;overflow=hidden;rotatable=0;points=[[0,0.5],[1,0.5]];portConstraint=eastwest;" parent="39" vertex="1">
                    <mxGeometry y="138" width="270" height="26" as="geometry"/>
                </mxCell>
                <mxCell id="46" value="AdvisorJSON" style="swimlane;fontStyle=1;align=center;verticalAlign=top;childLayout=stackLayout;horizontal=1;startSize=26;horizontalStack=0;resizeParent=1;resizeParentMax=0;resizeLast=0;collapsible=1;marginBottom=0;" parent="1" vertex="1">
                    <mxGeometry x="740" y="1638" width="270" height="112" as="geometry"/>
                </mxCell>
                <mxCell id="47" value="- listOfStudentID: ArrayList&lt;String&gt;" style="text;strokeColor=none;fillColor=none;align=left;verticalAlign=top;spacingLeft=4;spacingRight=4;overflow=hidden;rotatable=0;points=[[0,0.5],[1,0.5]];portConstraint=eastwest;" parent="46" vertex="1">
                    <mxGeometry y="26" width="270" height="26" as="geometry"/>
                </mxCell>
                <mxCell id="48" value="" style="line;strokeWidth=1;fillColor=none;align=left;verticalAlign=middle;spacingTop=-1;spacingLeft=3;spacingRight=3;rotatable=0;labelPosition=right;points=[];portConstraint=eastwest;strokeColor=inherit;" parent="46" vertex="1">
                    <mxGeometry y="52" width="270" height="8" as="geometry"/>
                </mxCell>
                <mxCell id="49" value="+ &lt;&lt;constructor&gt;&gt;AdvisorJSON(String , String)" style="text;strokeColor=none;fillColor=none;align=left;verticalAlign=top;spacingLeft=4;spacingRight=4;overflow=hidden;rotatable=0;points=[[0,0.5],[1,0.5]];portConstraint=eastwest;" parent="46" vertex="1">
                    <mxGeometry y="60" width="270" height="26" as="geometry"/>
                </mxCell>
                <mxCell id="50" value="+ addStudent(String): void" style="text;strokeColor=none;fillColor=none;align=left;verticalAlign=top;spacingLeft=4;spacingRight=4;overflow=hidden;rotatable=0;points=[[0,0.5],[1,0.5]];portConstraint=eastwest;" parent="46" vertex="1">
                    <mxGeometry y="86" width="270" height="26" as="geometry"/>
                </mxCell>
                <mxCell id="51" value="StudentJSON" style="swimlane;fontStyle=1;align=center;verticalAlign=top;childLayout=stackLayout;horizontal=1;startSize=26;horizontalStack=0;resizeParent=1;resizeParentMax=0;resizeLast=0;collapsible=1;marginBottom=0;" parent="1" vertex="1">
                    <mxGeometry x="1060" y="1350" width="199" height="164" as="geometry"/>
                </mxCell>
                <mxCell id="52" value="- advisorID: String" style="text;strokeColor=none;fillColor=none;align=left;verticalAlign=top;spacingLeft=4;spacingRight=4;overflow=hidden;rotatable=0;points=[[0,0.5],[1,0.5]];portConstraint=eastwest;" parent="51" vertex="1">
                    <mxGeometry y="26" width="199" height="26" as="geometry"/>
                </mxCell>
                <mxCell id="53" value="- studentID: String" style="text;strokeColor=none;fillColor=none;align=left;verticalAlign=top;spacingLeft=4;spacingRight=4;overflow=hidden;rotatable=0;points=[[0,0.5],[1,0.5]];portConstraint=eastwest;" parent="51" vertex="1">
                    <mxGeometry y="52" width="199" height="26" as="geometry"/>
                </mxCell>
                <mxCell id="54" value="- schedule: ScheduleJSON" style="text;strokeColor=none;fillColor=none;align=left;verticalAlign=top;spacingLeft=4;spacingRight=4;overflow=hidden;rotatable=0;points=[[0,0.5],[1,0.5]];portConstraint=eastwest;" parent="51" vertex="1">
                    <mxGeometry y="78" width="199" height="26" as="geometry"/>
                </mxCell>
                <mxCell id="55" value="- dateOfEntry: String" style="text;strokeColor=none;fillColor=none;align=left;verticalAlign=top;spacingLeft=4;spacingRight=4;overflow=hidden;rotatable=0;points=[[0,0.5],[1,0.5]];portConstraint=eastwest;" parent="51" vertex="1">
                    <mxGeometry y="104" width="199" height="26" as="geometry"/>
                </mxCell>
                <mxCell id="56" value="" style="line;strokeWidth=1;fillColor=none;align=left;verticalAlign=middle;spacingTop=-1;spacingLeft=3;spacingRight=3;rotatable=0;labelPosition=right;points=[];portConstraint=eastwest;strokeColor=inherit;" parent="51" vertex="1">
                    <mxGeometry y="130" width="199" height="8" as="geometry"/>
                </mxCell>
                <mxCell id="57" value="+  &lt;&lt;constructer&gt;&gt;StudentJSON" style="text;strokeColor=none;fillColor=none;align=left;verticalAlign=top;spacingLeft=4;spacingRight=4;overflow=hidden;rotatable=0;points=[[0,0.5],[1,0.5]];portConstraint=eastwest;" parent="51" vertex="1">
                    <mxGeometry y="138" width="199" height="26" as="geometry"/>
                </mxCell>
                <mxCell id="75" value="AdvisorRegistrationSystem" style="swimlane;fontStyle=1;align=center;verticalAlign=top;childLayout=stackLayout;horizontal=1;startSize=26;horizontalStack=0;resizeParent=1;resizeParentMax=0;resizeLast=0;collapsible=1;marginBottom=0;" vertex="1" parent="1">
                    <mxGeometry x="1650" y="292" width="320" height="216" as="geometry"/>
                </mxCell>
                <mxCell id="76" value="- scanner: Scanner" style="text;strokeColor=none;fillColor=none;align=left;verticalAlign=top;spacingLeft=4;spacingRight=4;overflow=hidden;rotatable=0;points=[[0,0.5],[1,0.5]];portConstraint=eastwest;" vertex="1" parent="75">
                    <mxGeometry y="26" width="320" height="26" as="geometry"/>
                </mxCell>
                <mxCell id="77" value="- registrationSystem: RegistrationSystem" style="text;strokeColor=none;fillColor=none;align=left;verticalAlign=top;spacingLeft=4;spacingRight=4;overflow=hidden;rotatable=0;points=[[0,0.5],[1,0.5]];portConstraint=eastwest;" vertex="1" parent="75">
                    <mxGeometry y="52" width="320" height="26" as="geometry"/>
                </mxCell>
                <mxCell id="78" value="- objects1: ObjectCreator" style="text;strokeColor=none;fillColor=none;align=left;verticalAlign=top;spacingLeft=4;spacingRight=4;overflow=hidden;rotatable=0;points=[[0,0.5],[1,0.5]];portConstraint=eastwest;" vertex="1" parent="75">
                    <mxGeometry y="78" width="320" height="26" as="geometry"/>
                </mxCell>
                <mxCell id="79" value="" style="line;strokeWidth=1;fillColor=none;align=left;verticalAlign=middle;spacingTop=-1;spacingLeft=3;spacingRight=3;rotatable=0;labelPosition=right;points=[];portConstraint=eastwest;strokeColor=inherit;" vertex="1" parent="75">
                    <mxGeometry y="104" width="320" height="8" as="geometry"/>
                </mxCell>
                <mxCell id="80" value="- &lt;&lt;constructor&gt;&gt;AdvisorRegistrationSystem()" style="text;strokeColor=none;fillColor=none;align=left;verticalAlign=top;spacingLeft=4;spacingRight=4;overflow=hidden;rotatable=0;points=[[0,0.5],[1,0.5]];portConstraint=eastwest;" vertex="1" parent="75">
                    <mxGeometry y="112" width="320" height="26" as="geometry"/>
                </mxCell>
                <mxCell id="81" value="- AdvisorLogin(): void" style="text;strokeColor=none;fillColor=none;align=left;verticalAlign=top;spacingLeft=4;spacingRight=4;overflow=hidden;rotatable=0;points=[[0,0.5],[1,0.5]];portConstraint=eastwest;" vertex="1" parent="75">
                    <mxGeometry y="138" width="320" height="26" as="geometry"/>
                </mxCell>
                <mxCell id="82" value="- advisorMenu(Advisor): void" style="text;strokeColor=none;fillColor=none;align=left;verticalAlign=top;spacingLeft=4;spacingRight=4;overflow=hidden;rotatable=0;points=[[0,0.5],[1,0.5]];portConstraint=eastwest;" vertex="1" parent="75">
                    <mxGeometry y="164" width="320" height="26" as="geometry"/>
                </mxCell>
                <mxCell id="83" value="- signOut(): void" style="text;strokeColor=none;fillColor=none;align=left;verticalAlign=top;spacingLeft=4;spacingRight=4;overflow=hidden;rotatable=0;points=[[0,0.5],[1,0.5]];portConstraint=eastwest;" vertex="1" parent="75">
                    <mxGeometry y="190" width="320" height="26" as="geometry"/>
                </mxCell>
            </root>
        </mxGraphModel>
    </diagram>
</mxfile>